<svg xmlns="http://www.w3.org/2000/svg" width="900" height="500" viewBox="0 0 900 500">
<rect width="100%" height="100%" fill="white"/>
<style>text{font-family:Arial,Helvetica,sans-serif;fill:#222} .axis{stroke:#222;stroke-width:1} .grid{stroke:#ddd;stroke-width:1}</style>
<text x="450.0" y="30" text-anchor="middle" font-size="22">cond3 Distribution: First vs Second Half</text>
<line class="grid" x1="80" x2="870" y1="430.0" y2="430.0"/>
<text x="70" y="434.0" text-anchor="end" font-size="12">0</text>
<line class="grid" x1="80" x2="870" y1="356.0" y2="356.0"/>
<text x="70" y="360.0" text-anchor="end" font-size="12">0.269</text>
<line class="grid" x1="80" x2="870" y1="282.0" y2="282.0"/>
<text x="70" y="286.0" text-anchor="end" font-size="12">0.538</text>
<line class="grid" x1="80" x2="870" y1="208.0" y2="208.0"/>
<text x="70" y="212.0" text-anchor="end" font-size="12">0.806</text>
<line class="grid" x1="80" x2="870" y1="134.0" y2="134.0"/>
<text x="70" y="138.0" text-anchor="end" font-size="12">1.08</text>
<line class="grid" x1="80" x2="870" y1="60.0" y2="60.0"/>
<text x="70" y="64.0" text-anchor="end" font-size="12">1.34</text>
<line class="axis" x1="80" x2="870" y1="430" y2="430"/>
<line class="axis" x1="80" x2="80" y1="60" y2="430"/>
<rect x="77.04" y="343.08" width="11.52" height="86.92" fill="#4C78A8" opacity="0.58"/>
<rect x="93.50" y="396.42" width="11.52" height="33.58" fill="#4C78A8" opacity="0.58"/>
<rect x="109.95" y="425.84" width="11.52" height="4.16" fill="#4C78A8" opacity="0.58"/>
<rect x="126.41" y="417.67" width="11.52" height="12.33" fill="#4C78A8" opacity="0.58"/>
<rect x="142.87" y="418.60" width="11.52" height="11.40" fill="#4C78A8" opacity="0.58"/>
<rect x="159.33" y="420.77" width="11.52" height="9.23" fill="#4C78A8" opacity="0.58"/>
<rect x="175.79" y="418.60" width="11.52" height="11.40" fill="#4C78A8" opacity="0.58"/>
<rect x="192.25" y="425.45" width="11.52" height="4.55" fill="#4C78A8" opacity="0.58"/>
<rect x="208.70" y="424.95" width="11.52" height="5.05" fill="#4C78A8" opacity="0.58"/>
<rect x="225.16" y="421.37" width="11.52" height="8.63" fill="#4C78A8" opacity="0.58"/>
<rect x="241.62" y="399.19" width="11.52" height="30.81" fill="#4C78A8" opacity="0.58"/>
<rect x="258.08" y="413.28" width="11.52" height="16.72" fill="#4C78A8" opacity="0.58"/>
<rect x="274.54" y="391.02" width="11.52" height="38.98" fill="#4C78A8" opacity="0.58"/>
<rect x="291.00" y="372.57" width="11.52" height="57.43" fill="#4C78A8" opacity="0.58"/>
<rect x="307.45" y="365.23" width="11.52" height="64.77" fill="#4C78A8" opacity="0.58"/>
<rect x="323.91" y="217.05" width="11.52" height="212.95" fill="#4C78A8" opacity="0.58"/>
<rect x="340.37" y="60.00" width="11.52" height="370.00" fill="#4C78A8" opacity="0.58"/>
<rect x="356.83" y="172.90" width="11.52" height="257.10" fill="#4C78A8" opacity="0.58"/>
<rect x="373.29" y="96.94" width="11.52" height="333.06" fill="#4C78A8" opacity="0.58"/>
<rect x="389.75" y="144.21" width="11.52" height="285.79" fill="#4C78A8" opacity="0.58"/>
<rect x="406.20" y="253.76" width="11.52" height="176.24" fill="#4C78A8" opacity="0.58"/>
<rect x="422.66" y="150.62" width="11.52" height="279.38" fill="#4C78A8" opacity="0.58"/>
<rect x="439.12" y="232.10" width="11.52" height="197.90" fill="#4C78A8" opacity="0.58"/>
<rect x="455.58" y="280.63" width="11.52" height="149.37" fill="#4C78A8" opacity="0.58"/>
<rect x="472.04" y="367.20" width="11.52" height="62.80" fill="#4C78A8" opacity="0.58"/>
<rect x="488.50" y="402.74" width="11.52" height="27.26" fill="#4C78A8" opacity="0.58"/>
<rect x="504.95" y="430.00" width="11.52" height="0.00" fill="#4C78A8" opacity="0.58"/>
<rect x="521.41" y="430.00" width="11.52" height="0.00" fill="#4C78A8" opacity="0.58"/>
<rect x="537.87" y="430.00" width="11.52" height="0.00" fill="#4C78A8" opacity="0.58"/>
<rect x="554.33" y="430.00" width="11.52" height="0.00" fill="#4C78A8" opacity="0.58"/>
<rect x="570.79" y="430.00" width="11.52" height="0.00" fill="#4C78A8" opacity="0.58"/>
<rect x="587.25" y="430.00" width="11.52" height="0.00" fill="#4C78A8" opacity="0.58"/>
<rect x="603.70" y="430.00" width="11.52" height="0.00" fill="#4C78A8" opacity="0.58"/>
<rect x="620.16" y="430.00" width="11.52" height="0.00" fill="#4C78A8" opacity="0.58"/>
<rect x="636.62" y="430.00" width="11.52" height="0.00" fill="#4C78A8" opacity="0.58"/>
<rect x="653.08" y="430.00" width="11.52" height="0.00" fill="#4C78A8" opacity="0.58"/>
<rect x="669.54" y="430.00" width="11.52" height="0.00" fill="#4C78A8" opacity="0.58"/>
<rect x="686.00" y="430.00" width="11.52" height="0.00" fill="#4C78A8" opacity="0.58"/>
<rect x="702.45" y="430.00" width="11.52" height="0.00" fill="#4C78A8" opacity="0.58"/>
<rect x="718.91" y="430.00" width="11.52" height="0.00" fill="#4C78A8" opacity="0.58"/>
<rect x="735.37" y="430.00" width="11.52" height="0.00" fill="#4C78A8" opacity="0.58"/>
<rect x="751.83" y="430.00" width="11.52" height="0.00" fill="#4C78A8" opacity="0.58"/>
<rect x="768.29" y="430.00" width="11.52" height="0.00" fill="#4C78A8" opacity="0.58"/>
<rect x="784.75" y="430.00" width="11.52" height="0.00" fill="#4C78A8" opacity="0.58"/>
<rect x="801.20" y="430.00" width="11.52" height="0.00" fill="#4C78A8" opacity="0.58"/>
<rect x="817.66" y="430.00" width="11.52" height="0.00" fill="#4C78A8" opacity="0.58"/>
<rect x="834.12" y="430.00" width="11.52" height="0.00" fill="#4C78A8" opacity="0.58"/>
<rect x="850.58" y="430.00" width="11.52" height="0.00" fill="#4C78A8" opacity="0.58"/>
<rect x="82.96" y="430.00" width="11.52" height="0.00" fill="#F58518" opacity="0.58"/>
<rect x="99.42" y="430.00" width="11.52" height="0.00" fill="#F58518" opacity="0.58"/>
<rect x="115.88" y="430.00" width="11.52" height="0.00" fill="#F58518" opacity="0.58"/>
<rect x="132.34" y="430.00" width="11.52" height="0.00" fill="#F58518" opacity="0.58"/>
<rect x="148.80" y="430.00" width="11.52" height="0.00" fill="#F58518" opacity="0.58"/>
<rect x="165.25" y="430.00" width="11.52" height="0.00" fill="#F58518" opacity="0.58"/>
<rect x="181.71" y="430.00" width="11.52" height="0.00" fill="#F58518" opacity="0.58"/>
<rect x="198.17" y="430.00" width="11.52" height="0.00" fill="#F58518" opacity="0.58"/>
<rect x="214.63" y="430.00" width="11.52" height="0.00" fill="#F58518" opacity="0.58"/>
<rect x="231.09" y="430.00" width="11.52" height="0.00" fill="#F58518" opacity="0.58"/>
<rect x="247.55" y="430.00" width="11.52" height="0.00" fill="#F58518" opacity="0.58"/>
<rect x="264.00" y="430.00" width="11.52" height="0.00" fill="#F58518" opacity="0.58"/>
<rect x="280.46" y="430.00" width="11.52" height="0.00" fill="#F58518" opacity="0.58"/>
<rect x="296.92" y="430.00" width="11.52" height="0.00" fill="#F58518" opacity="0.58"/>
<rect x="313.38" y="423.69" width="11.52" height="6.31" fill="#F58518" opacity="0.58"/>
<rect x="329.84" y="387.87" width="11.52" height="42.13" fill="#F58518" opacity="0.58"/>
<rect x="346.30" y="406.16" width="11.52" height="23.84" fill="#F58518" opacity="0.58"/>
<rect x="362.75" y="395.65" width="11.52" height="34.35" fill="#F58518" opacity="0.58"/>
<rect x="379.21" y="400.10" width="11.52" height="29.90" fill="#F58518" opacity="0.58"/>
<rect x="395.67" y="367.35" width="11.52" height="62.65" fill="#F58518" opacity="0.58"/>
<rect x="412.13" y="384.70" width="11.52" height="45.30" fill="#F58518" opacity="0.58"/>
<rect x="428.59" y="364.88" width="11.52" height="65.12" fill="#F58518" opacity="0.58"/>
<rect x="445.05" y="365.43" width="11.52" height="64.57" fill="#F58518" opacity="0.58"/>
<rect x="461.50" y="296.66" width="11.52" height="133.34" fill="#F58518" opacity="0.58"/>
<rect x="477.96" y="202.28" width="11.52" height="227.72" fill="#F58518" opacity="0.58"/>
<rect x="494.42" y="258.62" width="11.52" height="171.38" fill="#F58518" opacity="0.58"/>
<rect x="510.88" y="238.93" width="11.52" height="191.07" fill="#F58518" opacity="0.58"/>
<rect x="527.34" y="288.50" width="11.52" height="141.50" fill="#F58518" opacity="0.58"/>
<rect x="543.80" y="264.97" width="11.52" height="165.03" fill="#F58518" opacity="0.58"/>
<rect x="560.25" y="201.55" width="11.52" height="228.45" fill="#F58518" opacity="0.58"/>
<rect x="576.71" y="195.70" width="11.52" height="234.30" fill="#F58518" opacity="0.58"/>
<rect x="593.17" y="245.37" width="11.52" height="184.63" fill="#F58518" opacity="0.58"/>
<rect x="609.63" y="303.68" width="11.52" height="126.32" fill="#F58518" opacity="0.58"/>
<rect x="626.09" y="385.37" width="11.52" height="44.63" fill="#F58518" opacity="0.58"/>
<rect x="642.55" y="364.55" width="11.52" height="65.45" fill="#F58518" opacity="0.58"/>
<rect x="659.00" y="320.87" width="11.52" height="109.13" fill="#F58518" opacity="0.58"/>
<rect x="675.46" y="357.87" width="11.52" height="72.13" fill="#F58518" opacity="0.58"/>
<rect x="691.92" y="404.37" width="11.52" height="25.63" fill="#F58518" opacity="0.58"/>
<rect x="708.38" y="414.84" width="11.52" height="15.16" fill="#F58518" opacity="0.58"/>
<rect x="724.84" y="413.69" width="11.52" height="16.31" fill="#F58518" opacity="0.58"/>
<rect x="741.30" y="415.95" width="11.52" height="14.05" fill="#F58518" opacity="0.58"/>
<rect x="757.75" y="419.13" width="11.52" height="10.87" fill="#F58518" opacity="0.58"/>
<rect x="774.21" y="403.66" width="11.52" height="26.34" fill="#F58518" opacity="0.58"/>
<rect x="790.67" y="404.97" width="11.52" height="25.03" fill="#F58518" opacity="0.58"/>
<rect x="807.13" y="414.66" width="11.52" height="15.34" fill="#F58518" opacity="0.58"/>
<rect x="823.59" y="416.58" width="11.52" height="13.42" fill="#F58518" opacity="0.58"/>
<rect x="840.05" y="403.03" width="11.52" height="26.97" fill="#F58518" opacity="0.58"/>
<rect x="856.50" y="340.55" width="11.52" height="89.45" fill="#F58518" opacity="0.58"/>
<text x="80.0" y="454" text-anchor="middle" font-size="12">-0.375</text>
<text x="238.0" y="454" text-anchor="middle" font-size="12">0.587</text>
<text x="396.0" y="454" text-anchor="middle" font-size="12">1.55</text>
<text x="554.0" y="454" text-anchor="middle" font-size="12">2.51</text>
<text x="712.0" y="454" text-anchor="middle" font-size="12">3.47</text>
<text x="870.0" y="454" text-anchor="middle" font-size="12">4.43</text>
<text x="450.0" y="480" text-anchor="middle" font-size="14">cond3, clipped to 1st/99th percentiles for display</text>
<text transform="translate(22 250.0) rotate(-90)" text-anchor="middle" font-size="14">Density</text>
<rect x="690" y="58" width="16" height="16" fill="#4C78A8" opacity="0.65"/>
<text x="714" y="71" font-size="14">First half</text>
<rect x="690" y="82" width="16" height="16" fill="#F58518" opacity="0.65"/>
<text x="714" y="95" font-size="14">Second half</text>
</svg>