<?xml version="1.0" encoding="utf-8" standalone="no"?>
<!DOCTYPE svg PUBLIC "-//W3C//DTD SVG 1.1//EN"
  "http://www.w3.org/Graphics/SVG/1.1/DTD/svg11.dtd">
<svg xmlns:xlink="http://www.w3.org/1999/xlink" width="748.8pt" height="266.277656pt" viewBox="0 0 748.8 266.277656" xmlns="http://www.w3.org/2000/svg" version="1.1">
 <metadata>
  <rdf:RDF xmlns:dc="http://purl.org/dc/elements/1.1/" xmlns:cc="http://creativecommons.org/ns#" xmlns:rdf="http://www.w3.org/1999/02/22-rdf-syntax-ns#">
   <cc:Work>
    <dc:type rdf:resource="http://purl.org/dc/dcmitype/StillImage"/>
    <dc:date>2026-06-07T15:16:54.480757</dc:date>
    <dc:format>image/svg+xml</dc:format>
    <dc:creator>
     <cc:Agent>
      <dc:title>Matplotlib v3.5.1, https://matplotlib.org/</dc:title>
     </cc:Agent>
    </dc:creator>
   </cc:Work>
  </rdf:RDF>
 </metadata>
 <defs>
  <style type="text/css">*{stroke-linejoin: round; stroke-linecap: butt}</style>
 </defs>
 <g id="figure_1">
  <g id="patch_1">
   <path d="M 0 266.277656 
L 748.8 266.277656 
L 748.8 0 
L 0 0 
z
" style="fill: #ffffff"/>
  </g>
  <g id="axes_1">
   <g id="table_1">
    <g id="patch_2">
     <path d="M 7.2 84.883111 
L 80.64 84.883111 
L 80.64 67.467526 
L 7.2 67.467526 
z
" style="fill: #f3f4f6; stroke: #d0d7de; stroke-linejoin: miter"/>
    </g>
    <g id="text_1">
     <!-- feature -->
     <g style="fill: #111827" transform="translate(38.026313 78.520787)scale(0.085 -0.085)">
      <defs>
       <path id="DejaVuSans-Bold-66" d="M 2841 4863 
L 2841 4128 
L 2222 4128 
Q 1984 4128 1890 4042 
Q 1797 3956 1797 3744 
L 1797 3500 
L 2753 3500 
L 2753 2700 
L 1797 2700 
L 1797 0 
L 678 0 
L 678 2700 
L 122 2700 
L 122 3500 
L 678 3500 
L 678 3744 
Q 678 4316 997 4589 
Q 1316 4863 1984 4863 
L 2841 4863 
z
" transform="scale(0.015625)"/>
       <path id="DejaVuSans-Bold-65" d="M 4031 1759 
L 4031 1441 
L 1416 1441 
Q 1456 1047 1700 850 
Q 1944 653 2381 653 
Q 2734 653 3104 758 
Q 3475 863 3866 1075 
L 3866 213 
Q 3469 63 3072 -14 
Q 2675 -91 2278 -91 
Q 1328 -91 801 392 
Q 275 875 275 1747 
Q 275 2603 792 3093 
Q 1309 3584 2216 3584 
Q 3041 3584 3536 3087 
Q 4031 2591 4031 1759 
z
M 2881 2131 
Q 2881 2450 2695 2645 
Q 2509 2841 2209 2841 
Q 1884 2841 1681 2658 
Q 1478 2475 1428 2131 
L 2881 2131 
z
" transform="scale(0.015625)"/>
       <path id="DejaVuSans-Bold-61" d="M 2106 1575 
Q 1756 1575 1579 1456 
Q 1403 1338 1403 1106 
Q 1403 894 1545 773 
Q 1688 653 1941 653 
Q 2256 653 2472 879 
Q 2688 1106 2688 1447 
L 2688 1575 
L 2106 1575 
z
M 3816 1997 
L 3816 0 
L 2688 0 
L 2688 519 
Q 2463 200 2181 54 
Q 1900 -91 1497 -91 
Q 953 -91 614 226 
Q 275 544 275 1050 
Q 275 1666 698 1953 
Q 1122 2241 2028 2241 
L 2688 2241 
L 2688 2328 
Q 2688 2594 2478 2717 
Q 2269 2841 1825 2841 
Q 1466 2841 1156 2769 
Q 847 2697 581 2553 
L 581 3406 
Q 941 3494 1303 3539 
Q 1666 3584 2028 3584 
Q 2975 3584 3395 3211 
Q 3816 2838 3816 1997 
z
" transform="scale(0.015625)"/>
       <path id="DejaVuSans-Bold-74" d="M 1759 4494 
L 1759 3500 
L 2913 3500 
L 2913 2700 
L 1759 2700 
L 1759 1216 
Q 1759 972 1856 886 
Q 1953 800 2241 800 
L 2816 800 
L 2816 0 
L 1856 0 
Q 1194 0 917 276 
Q 641 553 641 1216 
L 641 2700 
L 84 2700 
L 84 3500 
L 641 3500 
L 641 4494 
L 1759 4494 
z
" transform="scale(0.015625)"/>
       <path id="DejaVuSans-Bold-75" d="M 500 1363 
L 500 3500 
L 1625 3500 
L 1625 3150 
Q 1625 2866 1622 2436 
Q 1619 2006 1619 1863 
Q 1619 1441 1641 1255 
Q 1663 1069 1716 984 
Q 1784 875 1895 815 
Q 2006 756 2150 756 
Q 2500 756 2700 1025 
Q 2900 1294 2900 1772 
L 2900 3500 
L 4019 3500 
L 4019 0 
L 2900 0 
L 2900 506 
Q 2647 200 2364 54 
Q 2081 -91 1741 -91 
Q 1134 -91 817 281 
Q 500 653 500 1363 
z
" transform="scale(0.015625)"/>
       <path id="DejaVuSans-Bold-72" d="M 3138 2547 
Q 2991 2616 2845 2648 
Q 2700 2681 2553 2681 
Q 2122 2681 1889 2404 
Q 1656 2128 1656 1613 
L 1656 0 
L 538 0 
L 538 3500 
L 1656 3500 
L 1656 2925 
Q 1872 3269 2151 3426 
Q 2431 3584 2822 3584 
Q 2878 3584 2943 3579 
Q 3009 3575 3134 3559 
L 3138 2547 
z
" transform="scale(0.015625)"/>
      </defs>
      <use xlink:href="#DejaVuSans-Bold-66"/>
      <use xlink:href="#DejaVuSans-Bold-65" x="43.505859"/>
      <use xlink:href="#DejaVuSans-Bold-61" x="111.328125"/>
      <use xlink:href="#DejaVuSans-Bold-74" x="178.808594"/>
      <use xlink:href="#DejaVuSans-Bold-75" x="226.611328"/>
      <use xlink:href="#DejaVuSans-Bold-72" x="297.802734"/>
      <use xlink:href="#DejaVuSans-Bold-65" x="347.119141"/>
     </g>
    </g>
    <g id="patch_3">
     <path d="M 80.64 84.883111 
L 154.08 84.883111 
L 154.08 67.467526 
L 80.64 67.467526 
z
" style="fill: #f3f4f6; stroke: #d0d7de; stroke-linejoin: miter"/>
    </g>
    <g id="text_2">
     <!-- mean -->
     <g style="fill: #111827" transform="translate(120.326234 78.520787)scale(0.085 -0.085)">
      <defs>
       <path id="DejaVuSans-Bold-6d" d="M 3781 2919 
Q 3994 3244 4286 3414 
Q 4578 3584 4928 3584 
Q 5531 3584 5847 3212 
Q 6163 2841 6163 2131 
L 6163 0 
L 5038 0 
L 5038 1825 
Q 5041 1866 5042 1909 
Q 5044 1953 5044 2034 
Q 5044 2406 4934 2573 
Q 4825 2741 4581 2741 
Q 4263 2741 4089 2478 
Q 3916 2216 3909 1719 
L 3909 0 
L 2784 0 
L 2784 1825 
Q 2784 2406 2684 2573 
Q 2584 2741 2328 2741 
Q 2006 2741 1831 2477 
Q 1656 2213 1656 1722 
L 1656 0 
L 531 0 
L 531 3500 
L 1656 3500 
L 1656 2988 
Q 1863 3284 2130 3434 
Q 2397 3584 2719 3584 
Q 3081 3584 3359 3409 
Q 3638 3234 3781 2919 
z
" transform="scale(0.015625)"/>
       <path id="DejaVuSans-Bold-6e" d="M 4056 2131 
L 4056 0 
L 2931 0 
L 2931 347 
L 2931 1631 
Q 2931 2084 2911 2256 
Q 2891 2428 2841 2509 
Q 2775 2619 2662 2680 
Q 2550 2741 2406 2741 
Q 2056 2741 1856 2470 
Q 1656 2200 1656 1722 
L 1656 0 
L 538 0 
L 538 3500 
L 1656 3500 
L 1656 2988 
Q 1909 3294 2193 3439 
Q 2478 3584 2822 3584 
Q 3428 3584 3742 3212 
Q 4056 2841 4056 2131 
z
" transform="scale(0.015625)"/>
      </defs>
      <use xlink:href="#DejaVuSans-Bold-6d"/>
      <use xlink:href="#DejaVuSans-Bold-65" x="104.199219"/>
      <use xlink:href="#DejaVuSans-Bold-61" x="172.021484"/>
      <use xlink:href="#DejaVuSans-Bold-6e" x="239.501953"/>
     </g>
    </g>
    <g id="patch_4">
     <path d="M 154.08 84.883111 
L 227.52 84.883111 
L 227.52 67.467526 
L 154.08 67.467526 
z
" style="fill: #f3f4f6; stroke: #d0d7de; stroke-linejoin: miter"/>
    </g>
    <g id="text_3">
     <!-- std -->
     <g style="fill: #111827" transform="translate(204.970297 78.520787)scale(0.085 -0.085)">
      <defs>
       <path id="DejaVuSans-Bold-73" d="M 3272 3391 
L 3272 2541 
Q 2913 2691 2578 2766 
Q 2244 2841 1947 2841 
Q 1628 2841 1473 2761 
Q 1319 2681 1319 2516 
Q 1319 2381 1436 2309 
Q 1553 2238 1856 2203 
L 2053 2175 
Q 2913 2066 3209 1816 
Q 3506 1566 3506 1031 
Q 3506 472 3093 190 
Q 2681 -91 1863 -91 
Q 1516 -91 1145 -36 
Q 775 19 384 128 
L 384 978 
Q 719 816 1070 734 
Q 1422 653 1784 653 
Q 2113 653 2278 743 
Q 2444 834 2444 1013 
Q 2444 1163 2330 1236 
Q 2216 1309 1875 1350 
L 1678 1375 
Q 931 1469 631 1722 
Q 331 1975 331 2491 
Q 331 3047 712 3315 
Q 1094 3584 1881 3584 
Q 2191 3584 2531 3537 
Q 2872 3491 3272 3391 
z
" transform="scale(0.015625)"/>
       <path id="DejaVuSans-Bold-64" d="M 2919 2988 
L 2919 4863 
L 4044 4863 
L 4044 0 
L 2919 0 
L 2919 506 
Q 2688 197 2409 53 
Q 2131 -91 1766 -91 
Q 1119 -91 703 423 
Q 288 938 288 1747 
Q 288 2556 703 3070 
Q 1119 3584 1766 3584 
Q 2128 3584 2408 3439 
Q 2688 3294 2919 2988 
z
M 2181 722 
Q 2541 722 2730 984 
Q 2919 1247 2919 1747 
Q 2919 2247 2730 2509 
Q 2541 2772 2181 2772 
Q 1825 2772 1636 2509 
Q 1447 2247 1447 1747 
Q 1447 1247 1636 984 
Q 1825 722 2181 722 
z
" transform="scale(0.015625)"/>
      </defs>
      <use xlink:href="#DejaVuSans-Bold-73"/>
      <use xlink:href="#DejaVuSans-Bold-74" x="59.521484"/>
      <use xlink:href="#DejaVuSans-Bold-64" x="107.324219"/>
     </g>
    </g>
    <g id="patch_5">
     <path d="M 227.52 84.883111 
L 300.96 84.883111 
L 300.96 67.467526 
L 227.52 67.467526 
z
" style="fill: #f3f4f6; stroke: #d0d7de; stroke-linejoin: miter"/>
    </g>
    <g id="text_4">
     <!-- q01 -->
     <g style="fill: #111827" transform="translate(275.703578 78.520787)scale(0.085 -0.085)">
      <defs>
       <path id="DejaVuSans-Bold-71" d="M 2181 2772 
Q 1825 2772 1636 2509 
Q 1447 2247 1447 1747 
Q 1447 1247 1636 984 
Q 1825 722 2181 722 
Q 2541 722 2730 984 
Q 2919 1247 2919 1747 
Q 2919 2247 2730 2509 
Q 2541 2772 2181 2772 
z
M 2919 506 
Q 2688 197 2409 53 
Q 2131 -91 1766 -91 
Q 1119 -91 703 423 
Q 288 938 288 1747 
Q 288 2556 703 3067 
Q 1119 3578 1766 3578 
Q 2131 3578 2409 3434 
Q 2688 3291 2919 2981 
L 2919 3500 
L 4044 3500 
L 4044 -1331 
L 2919 -1331 
L 2919 506 
z
" transform="scale(0.015625)"/>
       <path id="DejaVuSans-Bold-30" d="M 2944 2338 
Q 2944 3213 2780 3570 
Q 2616 3928 2228 3928 
Q 1841 3928 1675 3570 
Q 1509 3213 1509 2338 
Q 1509 1453 1675 1090 
Q 1841 728 2228 728 
Q 2613 728 2778 1090 
Q 2944 1453 2944 2338 
z
M 4147 2328 
Q 4147 1169 3647 539 
Q 3147 -91 2228 -91 
Q 1306 -91 806 539 
Q 306 1169 306 2328 
Q 306 3491 806 4120 
Q 1306 4750 2228 4750 
Q 3147 4750 3647 4120 
Q 4147 3491 4147 2328 
z
" transform="scale(0.015625)"/>
       <path id="DejaVuSans-Bold-31" d="M 750 831 
L 1813 831 
L 1813 3847 
L 722 3622 
L 722 4441 
L 1806 4666 
L 2950 4666 
L 2950 831 
L 4013 831 
L 4013 0 
L 750 0 
L 750 831 
z
" transform="scale(0.015625)"/>
      </defs>
      <use xlink:href="#DejaVuSans-Bold-71"/>
      <use xlink:href="#DejaVuSans-Bold-30" x="71.582031"/>
      <use xlink:href="#DejaVuSans-Bold-31" x="141.162109"/>
     </g>
    </g>
    <g id="patch_6">
     <path d="M 300.96 84.883111 
L 374.4 84.883111 
L 374.4 67.467526 
L 300.96 67.467526 
z
" style="fill: #f3f4f6; stroke: #d0d7de; stroke-linejoin: miter"/>
    </g>
    <g id="text_5">
     <!-- q05 -->
     <g style="fill: #111827" transform="translate(349.143578 78.520787)scale(0.085 -0.085)">
      <defs>
       <path id="DejaVuSans-Bold-35" d="M 678 4666 
L 3669 4666 
L 3669 3781 
L 1638 3781 
L 1638 3059 
Q 1775 3097 1914 3117 
Q 2053 3138 2203 3138 
Q 3056 3138 3531 2711 
Q 4006 2284 4006 1522 
Q 4006 766 3489 337 
Q 2972 -91 2053 -91 
Q 1656 -91 1267 -14 
Q 878 63 494 219 
L 494 1166 
Q 875 947 1217 837 
Q 1559 728 1863 728 
Q 2300 728 2551 942 
Q 2803 1156 2803 1522 
Q 2803 1891 2551 2103 
Q 2300 2316 1863 2316 
Q 1603 2316 1309 2248 
Q 1016 2181 678 2041 
L 678 4666 
z
" transform="scale(0.015625)"/>
      </defs>
      <use xlink:href="#DejaVuSans-Bold-71"/>
      <use xlink:href="#DejaVuSans-Bold-30" x="71.582031"/>
      <use xlink:href="#DejaVuSans-Bold-35" x="141.162109"/>
     </g>
    </g>
    <g id="patch_7">
     <path d="M 374.4 84.883111 
L 447.84 84.883111 
L 447.84 67.467526 
L 374.4 67.467526 
z
" style="fill: #f3f4f6; stroke: #d0d7de; stroke-linejoin: miter"/>
    </g>
    <g id="text_6">
     <!-- median -->
     <g style="fill: #111827" transform="translate(405.088188 78.520787)scale(0.085 -0.085)">
      <defs>
       <path id="DejaVuSans-Bold-69" d="M 538 3500 
L 1656 3500 
L 1656 0 
L 538 0 
L 538 3500 
z
M 538 4863 
L 1656 4863 
L 1656 3950 
L 538 3950 
L 538 4863 
z
" transform="scale(0.015625)"/>
      </defs>
      <use xlink:href="#DejaVuSans-Bold-6d"/>
      <use xlink:href="#DejaVuSans-Bold-65" x="104.199219"/>
      <use xlink:href="#DejaVuSans-Bold-64" x="172.021484"/>
      <use xlink:href="#DejaVuSans-Bold-69" x="243.603516"/>
      <use xlink:href="#DejaVuSans-Bold-61" x="277.880859"/>
      <use xlink:href="#DejaVuSans-Bold-6e" x="345.361328"/>
     </g>
    </g>
    <g id="patch_8">
     <path d="M 447.84 84.883111 
L 521.28 84.883111 
L 521.28 67.467526 
L 447.84 67.467526 
z
" style="fill: #f3f4f6; stroke: #d0d7de; stroke-linejoin: miter"/>
    </g>
    <g id="text_7">
     <!-- q95 -->
     <g style="fill: #111827" transform="translate(496.023578 78.520787)scale(0.085 -0.085)">
      <defs>
       <path id="DejaVuSans-Bold-39" d="M 641 103 
L 641 966 
Q 928 831 1190 764 
Q 1453 697 1709 697 
Q 2247 697 2547 995 
Q 2847 1294 2900 1881 
Q 2688 1725 2447 1647 
Q 2206 1569 1925 1569 
Q 1209 1569 770 1986 
Q 331 2403 331 3084 
Q 331 3838 820 4291 
Q 1309 4744 2131 4744 
Q 3044 4744 3544 4128 
Q 4044 3513 4044 2388 
Q 4044 1231 3459 570 
Q 2875 -91 1856 -91 
Q 1528 -91 1228 -42 
Q 928 6 641 103 
z
M 2125 2350 
Q 2441 2350 2600 2554 
Q 2759 2759 2759 3169 
Q 2759 3575 2600 3781 
Q 2441 3988 2125 3988 
Q 1809 3988 1650 3781 
Q 1491 3575 1491 3169 
Q 1491 2759 1650 2554 
Q 1809 2350 2125 2350 
z
" transform="scale(0.015625)"/>
      </defs>
      <use xlink:href="#DejaVuSans-Bold-71"/>
      <use xlink:href="#DejaVuSans-Bold-39" x="71.582031"/>
      <use xlink:href="#DejaVuSans-Bold-35" x="141.162109"/>
     </g>
    </g>
    <g id="patch_9">
     <path d="M 521.28 84.883111 
L 594.72 84.883111 
L 594.72 67.467526 
L 521.28 67.467526 
z
" style="fill: #f3f4f6; stroke: #d0d7de; stroke-linejoin: miter"/>
    </g>
    <g id="text_8">
     <!-- q99 -->
     <g style="fill: #111827" transform="translate(569.463578 78.520787)scale(0.085 -0.085)">
      <use xlink:href="#DejaVuSans-Bold-71"/>
      <use xlink:href="#DejaVuSans-Bold-39" x="71.582031"/>
      <use xlink:href="#DejaVuSans-Bold-39" x="141.162109"/>
     </g>
    </g>
    <g id="patch_10">
     <path d="M 594.72 84.883111 
L 668.16 84.883111 
L 668.16 67.467526 
L 594.72 67.467526 
z
" style="fill: #f3f4f6; stroke: #d0d7de; stroke-linejoin: miter"/>
    </g>
    <g id="text_9">
     <!-- min -->
     <g style="fill: #111827" transform="translate(642.993891 78.520787)scale(0.085 -0.085)">
      <use xlink:href="#DejaVuSans-Bold-6d"/>
      <use xlink:href="#DejaVuSans-Bold-69" x="104.199219"/>
      <use xlink:href="#DejaVuSans-Bold-6e" x="138.476562"/>
     </g>
    </g>
    <g id="patch_11">
     <path d="M 668.16 84.883111 
L 741.6 84.883111 
L 741.6 67.467526 
L 668.16 67.467526 
z
" style="fill: #f3f4f6; stroke: #d0d7de; stroke-linejoin: miter"/>
    </g>
    <g id="text_10">
     <!-- max -->
     <g style="fill: #111827" transform="translate(714.180062 78.520787)scale(0.085 -0.085)">
      <defs>
       <path id="DejaVuSans-Bold-78" d="M 1422 1791 
L 159 3500 
L 1344 3500 
L 2059 2463 
L 2784 3500 
L 3969 3500 
L 2706 1797 
L 4031 0 
L 2847 0 
L 2059 1106 
L 1281 0 
L 97 0 
L 1422 1791 
z
" transform="scale(0.015625)"/>
      </defs>
      <use xlink:href="#DejaVuSans-Bold-6d"/>
      <use xlink:href="#DejaVuSans-Bold-61" x="104.199219"/>
      <use xlink:href="#DejaVuSans-Bold-78" x="171.679688"/>
     </g>
    </g>
    <g id="patch_12">
     <path d="M 7.2 102.298695 
L 80.64 102.298695 
L 80.64 84.883111 
L 7.2 84.883111 
z
" style="fill: #f9fafb; stroke: #d0d7de; stroke-linejoin: miter"/>
    </g>
    <g id="text_11">
     <!-- x2 -->
     <g style="fill: #111827" transform="translate(61.899359 95.936372)scale(0.085 -0.085)">
      <defs>
       <path id="DejaVuSans-Bold-32" d="M 1844 884 
L 3897 884 
L 3897 0 
L 506 0 
L 506 884 
L 2209 2388 
Q 2438 2594 2547 2791 
Q 2656 2988 2656 3200 
Q 2656 3528 2436 3728 
Q 2216 3928 1850 3928 
Q 1569 3928 1234 3808 
Q 900 3688 519 3450 
L 519 4475 
Q 925 4609 1322 4679 
Q 1719 4750 2100 4750 
Q 2938 4750 3402 4381 
Q 3866 4013 3866 3353 
Q 3866 2972 3669 2642 
Q 3472 2313 2841 1759 
L 1844 884 
z
" transform="scale(0.015625)"/>
      </defs>
      <use xlink:href="#DejaVuSans-Bold-78"/>
      <use xlink:href="#DejaVuSans-Bold-32" x="64.501953"/>
     </g>
    </g>
    <g id="patch_13">
     <path d="M 80.64 102.298695 
L 154.08 102.298695 
L 154.08 84.883111 
L 80.64 84.883111 
z
" style="fill: #ffffff; stroke: #d0d7de; stroke-linejoin: miter"/>
    </g>
    <g id="text_12">
     <!-- 0.014 -->
     <g transform="translate(122.402094 95.936372)scale(0.085 -0.085)">
      <defs>
       <path id="DejaVuSans-30" d="M 2034 4250 
Q 1547 4250 1301 3770 
Q 1056 3291 1056 2328 
Q 1056 1369 1301 889 
Q 1547 409 2034 409 
Q 2525 409 2770 889 
Q 3016 1369 3016 2328 
Q 3016 3291 2770 3770 
Q 2525 4250 2034 4250 
z
M 2034 4750 
Q 2819 4750 3233 4129 
Q 3647 3509 3647 2328 
Q 3647 1150 3233 529 
Q 2819 -91 2034 -91 
Q 1250 -91 836 529 
Q 422 1150 422 2328 
Q 422 3509 836 4129 
Q 1250 4750 2034 4750 
z
" transform="scale(0.015625)"/>
       <path id="DejaVuSans-2e" d="M 684 794 
L 1344 794 
L 1344 0 
L 684 0 
L 684 794 
z
" transform="scale(0.015625)"/>
       <path id="DejaVuSans-31" d="M 794 531 
L 1825 531 
L 1825 4091 
L 703 3866 
L 703 4441 
L 1819 4666 
L 2450 4666 
L 2450 531 
L 3481 531 
L 3481 0 
L 794 0 
L 794 531 
z
" transform="scale(0.015625)"/>
       <path id="DejaVuSans-34" d="M 2419 4116 
L 825 1625 
L 2419 1625 
L 2419 4116 
z
M 2253 4666 
L 3047 4666 
L 3047 1625 
L 3713 1625 
L 3713 1100 
L 3047 1100 
L 3047 0 
L 2419 0 
L 2419 1100 
L 313 1100 
L 313 1709 
L 2253 4666 
z
" transform="scale(0.015625)"/>
      </defs>
      <use xlink:href="#DejaVuSans-30"/>
      <use xlink:href="#DejaVuSans-2e" x="63.623047"/>
      <use xlink:href="#DejaVuSans-30" x="95.410156"/>
      <use xlink:href="#DejaVuSans-31" x="159.033203"/>
      <use xlink:href="#DejaVuSans-34" x="222.65625"/>
     </g>
    </g>
    <g id="patch_14">
     <path d="M 154.08 102.298695 
L 227.52 102.298695 
L 227.52 84.883111 
L 154.08 84.883111 
z
" style="fill: #ffffff; stroke: #d0d7de; stroke-linejoin: miter"/>
    </g>
    <g id="text_13">
     <!-- 0.970 -->
     <g transform="translate(195.842094 95.936372)scale(0.085 -0.085)">
      <defs>
       <path id="DejaVuSans-39" d="M 703 97 
L 703 672 
Q 941 559 1184 500 
Q 1428 441 1663 441 
Q 2288 441 2617 861 
Q 2947 1281 2994 2138 
Q 2813 1869 2534 1725 
Q 2256 1581 1919 1581 
Q 1219 1581 811 2004 
Q 403 2428 403 3163 
Q 403 3881 828 4315 
Q 1253 4750 1959 4750 
Q 2769 4750 3195 4129 
Q 3622 3509 3622 2328 
Q 3622 1225 3098 567 
Q 2575 -91 1691 -91 
Q 1453 -91 1209 -44 
Q 966 3 703 97 
z
M 1959 2075 
Q 2384 2075 2632 2365 
Q 2881 2656 2881 3163 
Q 2881 3666 2632 3958 
Q 2384 4250 1959 4250 
Q 1534 4250 1286 3958 
Q 1038 3666 1038 3163 
Q 1038 2656 1286 2365 
Q 1534 2075 1959 2075 
z
" transform="scale(0.015625)"/>
       <path id="DejaVuSans-37" d="M 525 4666 
L 3525 4666 
L 3525 4397 
L 1831 0 
L 1172 0 
L 2766 4134 
L 525 4134 
L 525 4666 
z
" transform="scale(0.015625)"/>
      </defs>
      <use xlink:href="#DejaVuSans-30"/>
      <use xlink:href="#DejaVuSans-2e" x="63.623047"/>
      <use xlink:href="#DejaVuSans-39" x="95.410156"/>
      <use xlink:href="#DejaVuSans-37" x="159.033203"/>
      <use xlink:href="#DejaVuSans-30" x="222.65625"/>
     </g>
    </g>
    <g id="patch_15">
     <path d="M 227.52 102.298695 
L 300.96 102.298695 
L 300.96 84.883111 
L 227.52 84.883111 
z
" style="fill: #ffffff; stroke: #d0d7de; stroke-linejoin: miter"/>
    </g>
    <g id="text_14">
     <!-- -2.468 -->
     <g transform="translate(266.215453 95.936372)scale(0.085 -0.085)">
      <defs>
       <path id="DejaVuSans-2d" d="M 313 2009 
L 1997 2009 
L 1997 1497 
L 313 1497 
L 313 2009 
z
" transform="scale(0.015625)"/>
       <path id="DejaVuSans-32" d="M 1228 531 
L 3431 531 
L 3431 0 
L 469 0 
L 469 531 
Q 828 903 1448 1529 
Q 2069 2156 2228 2338 
Q 2531 2678 2651 2914 
Q 2772 3150 2772 3378 
Q 2772 3750 2511 3984 
Q 2250 4219 1831 4219 
Q 1534 4219 1204 4116 
Q 875 4013 500 3803 
L 500 4441 
Q 881 4594 1212 4672 
Q 1544 4750 1819 4750 
Q 2544 4750 2975 4387 
Q 3406 4025 3406 3419 
Q 3406 3131 3298 2873 
Q 3191 2616 2906 2266 
Q 2828 2175 2409 1742 
Q 1991 1309 1228 531 
z
" transform="scale(0.015625)"/>
       <path id="DejaVuSans-36" d="M 2113 2584 
Q 1688 2584 1439 2293 
Q 1191 2003 1191 1497 
Q 1191 994 1439 701 
Q 1688 409 2113 409 
Q 2538 409 2786 701 
Q 3034 994 3034 1497 
Q 3034 2003 2786 2293 
Q 2538 2584 2113 2584 
z
M 3366 4563 
L 3366 3988 
Q 3128 4100 2886 4159 
Q 2644 4219 2406 4219 
Q 1781 4219 1451 3797 
Q 1122 3375 1075 2522 
Q 1259 2794 1537 2939 
Q 1816 3084 2150 3084 
Q 2853 3084 3261 2657 
Q 3669 2231 3669 1497 
Q 3669 778 3244 343 
Q 2819 -91 2113 -91 
Q 1303 -91 875 529 
Q 447 1150 447 2328 
Q 447 3434 972 4092 
Q 1497 4750 2381 4750 
Q 2619 4750 2861 4703 
Q 3103 4656 3366 4563 
z
" transform="scale(0.015625)"/>
       <path id="DejaVuSans-38" d="M 2034 2216 
Q 1584 2216 1326 1975 
Q 1069 1734 1069 1313 
Q 1069 891 1326 650 
Q 1584 409 2034 409 
Q 2484 409 2743 651 
Q 3003 894 3003 1313 
Q 3003 1734 2745 1975 
Q 2488 2216 2034 2216 
z
M 1403 2484 
Q 997 2584 770 2862 
Q 544 3141 544 3541 
Q 544 4100 942 4425 
Q 1341 4750 2034 4750 
Q 2731 4750 3128 4425 
Q 3525 4100 3525 3541 
Q 3525 3141 3298 2862 
Q 3072 2584 2669 2484 
Q 3125 2378 3379 2068 
Q 3634 1759 3634 1313 
Q 3634 634 3220 271 
Q 2806 -91 2034 -91 
Q 1263 -91 848 271 
Q 434 634 434 1313 
Q 434 1759 690 2068 
Q 947 2378 1403 2484 
z
M 1172 3481 
Q 1172 3119 1398 2916 
Q 1625 2713 2034 2713 
Q 2441 2713 2670 2916 
Q 2900 3119 2900 3481 
Q 2900 3844 2670 4047 
Q 2441 4250 2034 4250 
Q 1625 4250 1398 4047 
Q 1172 3844 1172 3481 
z
" transform="scale(0.015625)"/>
      </defs>
      <use xlink:href="#DejaVuSans-2d"/>
      <use xlink:href="#DejaVuSans-32" x="36.083984"/>
      <use xlink:href="#DejaVuSans-2e" x="99.707031"/>
      <use xlink:href="#DejaVuSans-34" x="131.494141"/>
      <use xlink:href="#DejaVuSans-36" x="195.117188"/>
      <use xlink:href="#DejaVuSans-38" x="258.740234"/>
     </g>
    </g>
    <g id="patch_16">
     <path d="M 300.96 102.298695 
L 374.4 102.298695 
L 374.4 84.883111 
L 300.96 84.883111 
z
" style="fill: #ffffff; stroke: #d0d7de; stroke-linejoin: miter"/>
    </g>
    <g id="text_15">
     <!-- -1.405 -->
     <g transform="translate(339.655453 95.936372)scale(0.085 -0.085)">
      <defs>
       <path id="DejaVuSans-35" d="M 691 4666 
L 3169 4666 
L 3169 4134 
L 1269 4134 
L 1269 2991 
Q 1406 3038 1543 3061 
Q 1681 3084 1819 3084 
Q 2600 3084 3056 2656 
Q 3513 2228 3513 1497 
Q 3513 744 3044 326 
Q 2575 -91 1722 -91 
Q 1428 -91 1123 -41 
Q 819 9 494 109 
L 494 744 
Q 775 591 1075 516 
Q 1375 441 1709 441 
Q 2250 441 2565 725 
Q 2881 1009 2881 1497 
Q 2881 1984 2565 2268 
Q 2250 2553 1709 2553 
Q 1456 2553 1204 2497 
Q 953 2441 691 2322 
L 691 4666 
z
" transform="scale(0.015625)"/>
      </defs>
      <use xlink:href="#DejaVuSans-2d"/>
      <use xlink:href="#DejaVuSans-31" x="36.083984"/>
      <use xlink:href="#DejaVuSans-2e" x="99.707031"/>
      <use xlink:href="#DejaVuSans-34" x="131.494141"/>
      <use xlink:href="#DejaVuSans-30" x="195.117188"/>
      <use xlink:href="#DejaVuSans-35" x="258.740234"/>
     </g>
    </g>
    <g id="patch_17">
     <path d="M 374.4 102.298695 
L 447.84 102.298695 
L 447.84 84.883111 
L 374.4 84.883111 
z
" style="fill: #ffffff; stroke: #d0d7de; stroke-linejoin: miter"/>
    </g>
    <g id="text_16">
     <!-- -0.042 -->
     <g transform="translate(413.095453 95.936372)scale(0.085 -0.085)">
      <use xlink:href="#DejaVuSans-2d"/>
      <use xlink:href="#DejaVuSans-30" x="36.083984"/>
      <use xlink:href="#DejaVuSans-2e" x="99.707031"/>
      <use xlink:href="#DejaVuSans-30" x="131.494141"/>
      <use xlink:href="#DejaVuSans-34" x="195.117188"/>
      <use xlink:href="#DejaVuSans-32" x="258.740234"/>
     </g>
    </g>
    <g id="patch_18">
     <path d="M 447.84 102.298695 
L 521.28 102.298695 
L 521.28 84.883111 
L 447.84 84.883111 
z
" style="fill: #ffffff; stroke: #d0d7de; stroke-linejoin: miter"/>
    </g>
    <g id="text_17">
     <!-- 1.576 -->
     <g transform="translate(489.602094 95.936372)scale(0.085 -0.085)">
      <use xlink:href="#DejaVuSans-31"/>
      <use xlink:href="#DejaVuSans-2e" x="63.623047"/>
      <use xlink:href="#DejaVuSans-35" x="95.410156"/>
      <use xlink:href="#DejaVuSans-37" x="159.033203"/>
      <use xlink:href="#DejaVuSans-36" x="222.65625"/>
     </g>
    </g>
    <g id="patch_19">
     <path d="M 521.28 102.298695 
L 594.72 102.298695 
L 594.72 84.883111 
L 521.28 84.883111 
z
" style="fill: #ffffff; stroke: #d0d7de; stroke-linejoin: miter"/>
    </g>
    <g id="text_18">
     <!-- 2.976 -->
     <g transform="translate(563.042094 95.936372)scale(0.085 -0.085)">
      <use xlink:href="#DejaVuSans-32"/>
      <use xlink:href="#DejaVuSans-2e" x="63.623047"/>
      <use xlink:href="#DejaVuSans-39" x="95.410156"/>
      <use xlink:href="#DejaVuSans-37" x="159.033203"/>
      <use xlink:href="#DejaVuSans-36" x="222.65625"/>
     </g>
    </g>
    <g id="patch_20">
     <path d="M 594.72 102.298695 
L 668.16 102.298695 
L 668.16 84.883111 
L 594.72 84.883111 
z
" style="fill: #ffffff; stroke: #d0d7de; stroke-linejoin: miter"/>
    </g>
    <g id="text_19">
     <!-- -13.406 -->
     <g transform="translate(628.007328 95.936372)scale(0.085 -0.085)">
      <defs>
       <path id="DejaVuSans-33" d="M 2597 2516 
Q 3050 2419 3304 2112 
Q 3559 1806 3559 1356 
Q 3559 666 3084 287 
Q 2609 -91 1734 -91 
Q 1441 -91 1130 -33 
Q 819 25 488 141 
L 488 750 
Q 750 597 1062 519 
Q 1375 441 1716 441 
Q 2309 441 2620 675 
Q 2931 909 2931 1356 
Q 2931 1769 2642 2001 
Q 2353 2234 1838 2234 
L 1294 2234 
L 1294 2753 
L 1863 2753 
Q 2328 2753 2575 2939 
Q 2822 3125 2822 3475 
Q 2822 3834 2567 4026 
Q 2313 4219 1838 4219 
Q 1578 4219 1281 4162 
Q 984 4106 628 3988 
L 628 4550 
Q 988 4650 1302 4700 
Q 1616 4750 1894 4750 
Q 2613 4750 3031 4423 
Q 3450 4097 3450 3541 
Q 3450 3153 3228 2886 
Q 3006 2619 2597 2516 
z
" transform="scale(0.015625)"/>
      </defs>
      <use xlink:href="#DejaVuSans-2d"/>
      <use xlink:href="#DejaVuSans-31" x="36.083984"/>
      <use xlink:href="#DejaVuSans-33" x="99.707031"/>
      <use xlink:href="#DejaVuSans-2e" x="163.330078"/>
      <use xlink:href="#DejaVuSans-34" x="195.117188"/>
      <use xlink:href="#DejaVuSans-30" x="258.740234"/>
      <use xlink:href="#DejaVuSans-36" x="322.363281"/>
     </g>
    </g>
    <g id="patch_21">
     <path d="M 668.16 102.298695 
L 741.6 102.298695 
L 741.6 84.883111 
L 668.16 84.883111 
z
" style="fill: #ffffff; stroke: #d0d7de; stroke-linejoin: miter"/>
    </g>
    <g id="text_20">
     <!-- 18.135 -->
     <g transform="translate(704.513969 95.936372)scale(0.085 -0.085)">
      <use xlink:href="#DejaVuSans-31"/>
      <use xlink:href="#DejaVuSans-38" x="63.623047"/>
      <use xlink:href="#DejaVuSans-2e" x="127.246094"/>
      <use xlink:href="#DejaVuSans-31" x="159.033203"/>
      <use xlink:href="#DejaVuSans-33" x="222.65625"/>
      <use xlink:href="#DejaVuSans-35" x="286.279297"/>
     </g>
    </g>
    <g id="patch_22">
     <path d="M 7.2 119.71428 
L 80.64 119.71428 
L 80.64 102.298695 
L 7.2 102.298695 
z
" style="fill: #f9fafb; stroke: #d0d7de; stroke-linejoin: miter"/>
    </g>
    <g id="text_21">
     <!-- x5 -->
     <g style="fill: #111827" transform="translate(61.899359 113.351956)scale(0.085 -0.085)">
      <use xlink:href="#DejaVuSans-Bold-78"/>
      <use xlink:href="#DejaVuSans-Bold-35" x="64.501953"/>
     </g>
    </g>
    <g id="patch_23">
     <path d="M 80.64 119.71428 
L 154.08 119.71428 
L 154.08 102.298695 
L 80.64 102.298695 
z
" style="fill: #ffffff; stroke: #d0d7de; stroke-linejoin: miter"/>
    </g>
    <g id="text_22">
     <!-- 0.015 -->
     <g transform="translate(122.402094 113.351956)scale(0.085 -0.085)">
      <use xlink:href="#DejaVuSans-30"/>
      <use xlink:href="#DejaVuSans-2e" x="63.623047"/>
      <use xlink:href="#DejaVuSans-30" x="95.410156"/>
      <use xlink:href="#DejaVuSans-31" x="159.033203"/>
      <use xlink:href="#DejaVuSans-35" x="222.65625"/>
     </g>
    </g>
    <g id="patch_24">
     <path d="M 154.08 119.71428 
L 227.52 119.71428 
L 227.52 102.298695 
L 154.08 102.298695 
z
" style="fill: #ffffff; stroke: #d0d7de; stroke-linejoin: miter"/>
    </g>
    <g id="text_23">
     <!-- 1.065 -->
     <g transform="translate(195.842094 113.351956)scale(0.085 -0.085)">
      <use xlink:href="#DejaVuSans-31"/>
      <use xlink:href="#DejaVuSans-2e" x="63.623047"/>
      <use xlink:href="#DejaVuSans-30" x="95.410156"/>
      <use xlink:href="#DejaVuSans-36" x="159.033203"/>
      <use xlink:href="#DejaVuSans-35" x="222.65625"/>
     </g>
    </g>
    <g id="patch_25">
     <path d="M 227.52 119.71428 
L 300.96 119.71428 
L 300.96 102.298695 
L 227.52 102.298695 
z
" style="fill: #ffffff; stroke: #d0d7de; stroke-linejoin: miter"/>
    </g>
    <g id="text_24">
     <!-- -3.063 -->
     <g transform="translate(266.215453 113.351956)scale(0.085 -0.085)">
      <use xlink:href="#DejaVuSans-2d"/>
      <use xlink:href="#DejaVuSans-33" x="36.083984"/>
      <use xlink:href="#DejaVuSans-2e" x="99.707031"/>
      <use xlink:href="#DejaVuSans-30" x="131.494141"/>
      <use xlink:href="#DejaVuSans-36" x="195.117188"/>
      <use xlink:href="#DejaVuSans-33" x="258.740234"/>
     </g>
    </g>
    <g id="patch_26">
     <path d="M 300.96 119.71428 
L 374.4 119.71428 
L 374.4 102.298695 
L 300.96 102.298695 
z
" style="fill: #ffffff; stroke: #d0d7de; stroke-linejoin: miter"/>
    </g>
    <g id="text_25">
     <!-- -1.537 -->
     <g transform="translate(339.655453 113.351956)scale(0.085 -0.085)">
      <use xlink:href="#DejaVuSans-2d"/>
      <use xlink:href="#DejaVuSans-31" x="36.083984"/>
      <use xlink:href="#DejaVuSans-2e" x="99.707031"/>
      <use xlink:href="#DejaVuSans-35" x="131.494141"/>
      <use xlink:href="#DejaVuSans-33" x="195.117188"/>
      <use xlink:href="#DejaVuSans-37" x="258.740234"/>
     </g>
    </g>
    <g id="patch_27">
     <path d="M 374.4 119.71428 
L 447.84 119.71428 
L 447.84 102.298695 
L 374.4 102.298695 
z
" style="fill: #ffffff; stroke: #d0d7de; stroke-linejoin: miter"/>
    </g>
    <g id="text_26">
     <!-- 0.025 -->
     <g transform="translate(416.162094 113.351956)scale(0.085 -0.085)">
      <use xlink:href="#DejaVuSans-30"/>
      <use xlink:href="#DejaVuSans-2e" x="63.623047"/>
      <use xlink:href="#DejaVuSans-30" x="95.410156"/>
      <use xlink:href="#DejaVuSans-32" x="159.033203"/>
      <use xlink:href="#DejaVuSans-35" x="222.65625"/>
     </g>
    </g>
    <g id="patch_28">
     <path d="M 447.84 119.71428 
L 521.28 119.71428 
L 521.28 102.298695 
L 447.84 102.298695 
z
" style="fill: #ffffff; stroke: #d0d7de; stroke-linejoin: miter"/>
    </g>
    <g id="text_27">
     <!-- 1.528 -->
     <g transform="translate(489.602094 113.351956)scale(0.085 -0.085)">
      <use xlink:href="#DejaVuSans-31"/>
      <use xlink:href="#DejaVuSans-2e" x="63.623047"/>
      <use xlink:href="#DejaVuSans-35" x="95.410156"/>
      <use xlink:href="#DejaVuSans-32" x="159.033203"/>
      <use xlink:href="#DejaVuSans-38" x="222.65625"/>
     </g>
    </g>
    <g id="patch_29">
     <path d="M 521.28 119.71428 
L 594.72 119.71428 
L 594.72 102.298695 
L 521.28 102.298695 
z
" style="fill: #ffffff; stroke: #d0d7de; stroke-linejoin: miter"/>
    </g>
    <g id="text_28">
     <!-- 2.929 -->
     <g transform="translate(563.042094 113.351956)scale(0.085 -0.085)">
      <use xlink:href="#DejaVuSans-32"/>
      <use xlink:href="#DejaVuSans-2e" x="63.623047"/>
      <use xlink:href="#DejaVuSans-39" x="95.410156"/>
      <use xlink:href="#DejaVuSans-32" x="159.033203"/>
      <use xlink:href="#DejaVuSans-39" x="222.65625"/>
     </g>
    </g>
    <g id="patch_30">
     <path d="M 594.72 119.71428 
L 668.16 119.71428 
L 668.16 102.298695 
L 594.72 102.298695 
z
" style="fill: #ffffff; stroke: #d0d7de; stroke-linejoin: miter"/>
    </g>
    <g id="text_29">
     <!-- -21.392 -->
     <g transform="translate(628.007328 113.351956)scale(0.085 -0.085)">
      <use xlink:href="#DejaVuSans-2d"/>
      <use xlink:href="#DejaVuSans-32" x="36.083984"/>
      <use xlink:href="#DejaVuSans-31" x="99.707031"/>
      <use xlink:href="#DejaVuSans-2e" x="163.330078"/>
      <use xlink:href="#DejaVuSans-33" x="195.117188"/>
      <use xlink:href="#DejaVuSans-39" x="258.740234"/>
      <use xlink:href="#DejaVuSans-32" x="322.363281"/>
     </g>
    </g>
    <g id="patch_31">
     <path d="M 668.16 119.71428 
L 741.6 119.71428 
L 741.6 102.298695 
L 668.16 102.298695 
z
" style="fill: #ffffff; stroke: #d0d7de; stroke-linejoin: miter"/>
    </g>
    <g id="text_30">
     <!-- 18.944 -->
     <g transform="translate(704.513969 113.351956)scale(0.085 -0.085)">
      <use xlink:href="#DejaVuSans-31"/>
      <use xlink:href="#DejaVuSans-38" x="63.623047"/>
      <use xlink:href="#DejaVuSans-2e" x="127.246094"/>
      <use xlink:href="#DejaVuSans-39" x="159.033203"/>
      <use xlink:href="#DejaVuSans-34" x="222.65625"/>
      <use xlink:href="#DejaVuSans-34" x="286.279297"/>
     </g>
    </g>
    <g id="patch_32">
     <path d="M 7.2 137.129864 
L 80.64 137.129864 
L 80.64 119.71428 
L 7.2 119.71428 
z
" style="fill: #f9fafb; stroke: #d0d7de; stroke-linejoin: miter"/>
    </g>
    <g id="text_31">
     <!-- x6 -->
     <g style="fill: #111827" transform="translate(61.899359 130.767541)scale(0.085 -0.085)">
      <defs>
       <path id="DejaVuSans-Bold-36" d="M 2316 2303 
Q 2000 2303 1842 2098 
Q 1684 1894 1684 1484 
Q 1684 1075 1842 870 
Q 2000 666 2316 666 
Q 2634 666 2792 870 
Q 2950 1075 2950 1484 
Q 2950 1894 2792 2098 
Q 2634 2303 2316 2303 
z
M 3803 4544 
L 3803 3681 
Q 3506 3822 3243 3889 
Q 2981 3956 2731 3956 
Q 2194 3956 1894 3657 
Q 1594 3359 1544 2772 
Q 1750 2925 1990 3001 
Q 2231 3078 2516 3078 
Q 3231 3078 3670 2659 
Q 4109 2241 4109 1563 
Q 4109 813 3618 361 
Q 3128 -91 2303 -91 
Q 1394 -91 895 523 
Q 397 1138 397 2266 
Q 397 3422 980 4083 
Q 1563 4744 2578 4744 
Q 2900 4744 3203 4694 
Q 3506 4644 3803 4544 
z
" transform="scale(0.015625)"/>
      </defs>
      <use xlink:href="#DejaVuSans-Bold-78"/>
      <use xlink:href="#DejaVuSans-Bold-36" x="64.501953"/>
     </g>
    </g>
    <g id="patch_33">
     <path d="M 80.64 137.129864 
L 154.08 137.129864 
L 154.08 119.71428 
L 80.64 119.71428 
z
" style="fill: #ffffff; stroke: #d0d7de; stroke-linejoin: miter"/>
    </g>
    <g id="text_32">
     <!-- 0.016 -->
     <g transform="translate(122.402094 130.767541)scale(0.085 -0.085)">
      <use xlink:href="#DejaVuSans-30"/>
      <use xlink:href="#DejaVuSans-2e" x="63.623047"/>
      <use xlink:href="#DejaVuSans-30" x="95.410156"/>
      <use xlink:href="#DejaVuSans-31" x="159.033203"/>
      <use xlink:href="#DejaVuSans-36" x="222.65625"/>
     </g>
    </g>
    <g id="patch_34">
     <path d="M 154.08 137.129864 
L 227.52 137.129864 
L 227.52 119.71428 
L 154.08 119.71428 
z
" style="fill: #ffffff; stroke: #d0d7de; stroke-linejoin: miter"/>
    </g>
    <g id="text_33">
     <!-- 0.882 -->
     <g transform="translate(195.842094 130.767541)scale(0.085 -0.085)">
      <use xlink:href="#DejaVuSans-30"/>
      <use xlink:href="#DejaVuSans-2e" x="63.623047"/>
      <use xlink:href="#DejaVuSans-38" x="95.410156"/>
      <use xlink:href="#DejaVuSans-38" x="159.033203"/>
      <use xlink:href="#DejaVuSans-32" x="222.65625"/>
     </g>
    </g>
    <g id="patch_35">
     <path d="M 227.52 137.129864 
L 300.96 137.129864 
L 300.96 119.71428 
L 227.52 119.71428 
z
" style="fill: #ffffff; stroke: #d0d7de; stroke-linejoin: miter"/>
    </g>
    <g id="text_34">
     <!-- -2.437 -->
     <g transform="translate(266.215453 130.767541)scale(0.085 -0.085)">
      <use xlink:href="#DejaVuSans-2d"/>
      <use xlink:href="#DejaVuSans-32" x="36.083984"/>
      <use xlink:href="#DejaVuSans-2e" x="99.707031"/>
      <use xlink:href="#DejaVuSans-34" x="131.494141"/>
      <use xlink:href="#DejaVuSans-33" x="195.117188"/>
      <use xlink:href="#DejaVuSans-37" x="258.740234"/>
     </g>
    </g>
    <g id="patch_36">
     <path d="M 300.96 137.129864 
L 374.4 137.129864 
L 374.4 119.71428 
L 300.96 119.71428 
z
" style="fill: #ffffff; stroke: #d0d7de; stroke-linejoin: miter"/>
    </g>
    <g id="text_35">
     <!-- -1.366 -->
     <g transform="translate(339.655453 130.767541)scale(0.085 -0.085)">
      <use xlink:href="#DejaVuSans-2d"/>
      <use xlink:href="#DejaVuSans-31" x="36.083984"/>
      <use xlink:href="#DejaVuSans-2e" x="99.707031"/>
      <use xlink:href="#DejaVuSans-33" x="131.494141"/>
      <use xlink:href="#DejaVuSans-36" x="195.117188"/>
      <use xlink:href="#DejaVuSans-36" x="258.740234"/>
     </g>
    </g>
    <g id="patch_37">
     <path d="M 374.4 137.129864 
L 447.84 137.129864 
L 447.84 119.71428 
L 374.4 119.71428 
z
" style="fill: #ffffff; stroke: #d0d7de; stroke-linejoin: miter"/>
    </g>
    <g id="text_36">
     <!-- 0.032 -->
     <g transform="translate(416.162094 130.767541)scale(0.085 -0.085)">
      <use xlink:href="#DejaVuSans-30"/>
      <use xlink:href="#DejaVuSans-2e" x="63.623047"/>
      <use xlink:href="#DejaVuSans-30" x="95.410156"/>
      <use xlink:href="#DejaVuSans-33" x="159.033203"/>
      <use xlink:href="#DejaVuSans-32" x="222.65625"/>
     </g>
    </g>
    <g id="patch_38">
     <path d="M 447.84 137.129864 
L 521.28 137.129864 
L 521.28 119.71428 
L 447.84 119.71428 
z
" style="fill: #ffffff; stroke: #d0d7de; stroke-linejoin: miter"/>
    </g>
    <g id="text_37">
     <!-- 1.353 -->
     <g transform="translate(489.602094 130.767541)scale(0.085 -0.085)">
      <use xlink:href="#DejaVuSans-31"/>
      <use xlink:href="#DejaVuSans-2e" x="63.623047"/>
      <use xlink:href="#DejaVuSans-33" x="95.410156"/>
      <use xlink:href="#DejaVuSans-35" x="159.033203"/>
      <use xlink:href="#DejaVuSans-33" x="222.65625"/>
     </g>
    </g>
    <g id="patch_39">
     <path d="M 521.28 137.129864 
L 594.72 137.129864 
L 594.72 119.71428 
L 521.28 119.71428 
z
" style="fill: #ffffff; stroke: #d0d7de; stroke-linejoin: miter"/>
    </g>
    <g id="text_38">
     <!-- 2.369 -->
     <g transform="translate(563.042094 130.767541)scale(0.085 -0.085)">
      <use xlink:href="#DejaVuSans-32"/>
      <use xlink:href="#DejaVuSans-2e" x="63.623047"/>
      <use xlink:href="#DejaVuSans-33" x="95.410156"/>
      <use xlink:href="#DejaVuSans-36" x="159.033203"/>
      <use xlink:href="#DejaVuSans-39" x="222.65625"/>
     </g>
    </g>
    <g id="patch_40">
     <path d="M 594.72 137.129864 
L 668.16 137.129864 
L 668.16 119.71428 
L 594.72 119.71428 
z
" style="fill: #ffffff; stroke: #d0d7de; stroke-linejoin: miter"/>
    </g>
    <g id="text_39">
     <!-- -16.954 -->
     <g transform="translate(628.007328 130.767541)scale(0.085 -0.085)">
      <use xlink:href="#DejaVuSans-2d"/>
      <use xlink:href="#DejaVuSans-31" x="36.083984"/>
      <use xlink:href="#DejaVuSans-36" x="99.707031"/>
      <use xlink:href="#DejaVuSans-2e" x="163.330078"/>
      <use xlink:href="#DejaVuSans-39" x="195.117188"/>
      <use xlink:href="#DejaVuSans-35" x="258.740234"/>
      <use xlink:href="#DejaVuSans-34" x="322.363281"/>
     </g>
    </g>
    <g id="patch_41">
     <path d="M 668.16 137.129864 
L 741.6 137.129864 
L 741.6 119.71428 
L 668.16 119.71428 
z
" style="fill: #ffffff; stroke: #d0d7de; stroke-linejoin: miter"/>
    </g>
    <g id="text_40">
     <!-- 18.095 -->
     <g transform="translate(704.513969 130.767541)scale(0.085 -0.085)">
      <use xlink:href="#DejaVuSans-31"/>
      <use xlink:href="#DejaVuSans-38" x="63.623047"/>
      <use xlink:href="#DejaVuSans-2e" x="127.246094"/>
      <use xlink:href="#DejaVuSans-30" x="159.033203"/>
      <use xlink:href="#DejaVuSans-39" x="222.65625"/>
      <use xlink:href="#DejaVuSans-35" x="286.279297"/>
     </g>
    </g>
    <g id="patch_42">
     <path d="M 7.2 154.545448 
L 80.64 154.545448 
L 80.64 137.129864 
L 7.2 137.129864 
z
" style="fill: #f9fafb; stroke: #d0d7de; stroke-linejoin: miter"/>
    </g>
    <g id="text_41">
     <!-- x8 -->
     <g style="fill: #111827" transform="translate(61.899359 148.183125)scale(0.085 -0.085)">
      <defs>
       <path id="DejaVuSans-Bold-38" d="M 2228 2088 
Q 1891 2088 1709 1903 
Q 1528 1719 1528 1375 
Q 1528 1031 1709 848 
Q 1891 666 2228 666 
Q 2563 666 2741 848 
Q 2919 1031 2919 1375 
Q 2919 1722 2741 1905 
Q 2563 2088 2228 2088 
z
M 1350 2484 
Q 925 2613 709 2878 
Q 494 3144 494 3541 
Q 494 4131 934 4440 
Q 1375 4750 2228 4750 
Q 3075 4750 3515 4442 
Q 3956 4134 3956 3541 
Q 3956 3144 3739 2878 
Q 3522 2613 3097 2484 
Q 3572 2353 3814 2058 
Q 4056 1763 4056 1313 
Q 4056 619 3595 264 
Q 3134 -91 2228 -91 
Q 1319 -91 855 264 
Q 391 619 391 1313 
Q 391 1763 633 2058 
Q 875 2353 1350 2484 
z
M 1631 3419 
Q 1631 3141 1786 2991 
Q 1941 2841 2228 2841 
Q 2509 2841 2662 2991 
Q 2816 3141 2816 3419 
Q 2816 3697 2662 3845 
Q 2509 3994 2228 3994 
Q 1941 3994 1786 3844 
Q 1631 3694 1631 3419 
z
" transform="scale(0.015625)"/>
      </defs>
      <use xlink:href="#DejaVuSans-Bold-78"/>
      <use xlink:href="#DejaVuSans-Bold-38" x="64.501953"/>
     </g>
    </g>
    <g id="patch_43">
     <path d="M 80.64 154.545448 
L 154.08 154.545448 
L 154.08 137.129864 
L 80.64 137.129864 
z
" style="fill: #ffffff; stroke: #d0d7de; stroke-linejoin: miter"/>
    </g>
    <g id="text_42">
     <!-- -0.002 -->
     <g transform="translate(119.335453 148.183125)scale(0.085 -0.085)">
      <use xlink:href="#DejaVuSans-2d"/>
      <use xlink:href="#DejaVuSans-30" x="36.083984"/>
      <use xlink:href="#DejaVuSans-2e" x="99.707031"/>
      <use xlink:href="#DejaVuSans-30" x="131.494141"/>
      <use xlink:href="#DejaVuSans-30" x="195.117188"/>
      <use xlink:href="#DejaVuSans-32" x="258.740234"/>
     </g>
    </g>
    <g id="patch_44">
     <path d="M 154.08 154.545448 
L 227.52 154.545448 
L 227.52 137.129864 
L 154.08 137.129864 
z
" style="fill: #ffffff; stroke: #d0d7de; stroke-linejoin: miter"/>
    </g>
    <g id="text_43">
     <!-- 1.142 -->
     <g transform="translate(195.842094 148.183125)scale(0.085 -0.085)">
      <use xlink:href="#DejaVuSans-31"/>
      <use xlink:href="#DejaVuSans-2e" x="63.623047"/>
      <use xlink:href="#DejaVuSans-31" x="95.410156"/>
      <use xlink:href="#DejaVuSans-34" x="159.033203"/>
      <use xlink:href="#DejaVuSans-32" x="222.65625"/>
     </g>
    </g>
    <g id="patch_45">
     <path d="M 227.52 154.545448 
L 300.96 154.545448 
L 300.96 137.129864 
L 227.52 137.129864 
z
" style="fill: #ffffff; stroke: #d0d7de; stroke-linejoin: miter"/>
    </g>
    <g id="text_44">
     <!-- -3.089 -->
     <g transform="translate(266.215453 148.183125)scale(0.085 -0.085)">
      <use xlink:href="#DejaVuSans-2d"/>
      <use xlink:href="#DejaVuSans-33" x="36.083984"/>
      <use xlink:href="#DejaVuSans-2e" x="99.707031"/>
      <use xlink:href="#DejaVuSans-30" x="131.494141"/>
      <use xlink:href="#DejaVuSans-38" x="195.117188"/>
      <use xlink:href="#DejaVuSans-39" x="258.740234"/>
     </g>
    </g>
    <g id="patch_46">
     <path d="M 300.96 154.545448 
L 374.4 154.545448 
L 374.4 137.129864 
L 300.96 137.129864 
z
" style="fill: #ffffff; stroke: #d0d7de; stroke-linejoin: miter"/>
    </g>
    <g id="text_45">
     <!-- -1.720 -->
     <g transform="translate(339.655453 148.183125)scale(0.085 -0.085)">
      <use xlink:href="#DejaVuSans-2d"/>
      <use xlink:href="#DejaVuSans-31" x="36.083984"/>
      <use xlink:href="#DejaVuSans-2e" x="99.707031"/>
      <use xlink:href="#DejaVuSans-37" x="131.494141"/>
      <use xlink:href="#DejaVuSans-32" x="195.117188"/>
      <use xlink:href="#DejaVuSans-30" x="258.740234"/>
     </g>
    </g>
    <g id="patch_47">
     <path d="M 374.4 154.545448 
L 447.84 154.545448 
L 447.84 137.129864 
L 374.4 137.129864 
z
" style="fill: #ffffff; stroke: #d0d7de; stroke-linejoin: miter"/>
    </g>
    <g id="text_46">
     <!-- -0.019 -->
     <g transform="translate(413.095453 148.183125)scale(0.085 -0.085)">
      <use xlink:href="#DejaVuSans-2d"/>
      <use xlink:href="#DejaVuSans-30" x="36.083984"/>
      <use xlink:href="#DejaVuSans-2e" x="99.707031"/>
      <use xlink:href="#DejaVuSans-30" x="131.494141"/>
      <use xlink:href="#DejaVuSans-31" x="195.117188"/>
      <use xlink:href="#DejaVuSans-39" x="258.740234"/>
     </g>
    </g>
    <g id="patch_48">
     <path d="M 447.84 154.545448 
L 521.28 154.545448 
L 521.28 137.129864 
L 447.84 137.129864 
z
" style="fill: #ffffff; stroke: #d0d7de; stroke-linejoin: miter"/>
    </g>
    <g id="text_47">
     <!-- 1.836 -->
     <g transform="translate(489.602094 148.183125)scale(0.085 -0.085)">
      <use xlink:href="#DejaVuSans-31"/>
      <use xlink:href="#DejaVuSans-2e" x="63.623047"/>
      <use xlink:href="#DejaVuSans-38" x="95.410156"/>
      <use xlink:href="#DejaVuSans-33" x="159.033203"/>
      <use xlink:href="#DejaVuSans-36" x="222.65625"/>
     </g>
    </g>
    <g id="patch_49">
     <path d="M 521.28 154.545448 
L 594.72 154.545448 
L 594.72 137.129864 
L 521.28 137.129864 
z
" style="fill: #ffffff; stroke: #d0d7de; stroke-linejoin: miter"/>
    </g>
    <g id="text_48">
     <!-- 3.279 -->
     <g transform="translate(563.042094 148.183125)scale(0.085 -0.085)">
      <use xlink:href="#DejaVuSans-33"/>
      <use xlink:href="#DejaVuSans-2e" x="63.623047"/>
      <use xlink:href="#DejaVuSans-32" x="95.410156"/>
      <use xlink:href="#DejaVuSans-37" x="159.033203"/>
      <use xlink:href="#DejaVuSans-39" x="222.65625"/>
     </g>
    </g>
    <g id="patch_50">
     <path d="M 594.72 154.545448 
L 668.16 154.545448 
L 668.16 137.129864 
L 594.72 137.129864 
z
" style="fill: #ffffff; stroke: #d0d7de; stroke-linejoin: miter"/>
    </g>
    <g id="text_49">
     <!-- -16.633 -->
     <g transform="translate(628.007328 148.183125)scale(0.085 -0.085)">
      <use xlink:href="#DejaVuSans-2d"/>
      <use xlink:href="#DejaVuSans-31" x="36.083984"/>
      <use xlink:href="#DejaVuSans-36" x="99.707031"/>
      <use xlink:href="#DejaVuSans-2e" x="163.330078"/>
      <use xlink:href="#DejaVuSans-36" x="195.117188"/>
      <use xlink:href="#DejaVuSans-33" x="258.740234"/>
      <use xlink:href="#DejaVuSans-33" x="322.363281"/>
     </g>
    </g>
    <g id="patch_51">
     <path d="M 668.16 154.545448 
L 741.6 154.545448 
L 741.6 137.129864 
L 668.16 137.129864 
z
" style="fill: #ffffff; stroke: #d0d7de; stroke-linejoin: miter"/>
    </g>
    <g id="text_50">
     <!-- 25.668 -->
     <g transform="translate(704.513969 148.183125)scale(0.085 -0.085)">
      <use xlink:href="#DejaVuSans-32"/>
      <use xlink:href="#DejaVuSans-35" x="63.623047"/>
      <use xlink:href="#DejaVuSans-2e" x="127.246094"/>
      <use xlink:href="#DejaVuSans-36" x="159.033203"/>
      <use xlink:href="#DejaVuSans-36" x="222.65625"/>
      <use xlink:href="#DejaVuSans-38" x="286.279297"/>
     </g>
    </g>
    <g id="patch_52">
     <path d="M 7.2 171.961033 
L 80.64 171.961033 
L 80.64 154.545448 
L 7.2 154.545448 
z
" style="fill: #f9fafb; stroke: #d0d7de; stroke-linejoin: miter"/>
    </g>
    <g id="text_51">
     <!-- x11 -->
     <g style="fill: #111827" transform="translate(55.985219 165.598709)scale(0.085 -0.085)">
      <use xlink:href="#DejaVuSans-Bold-78"/>
      <use xlink:href="#DejaVuSans-Bold-31" x="64.501953"/>
      <use xlink:href="#DejaVuSans-Bold-31" x="134.082031"/>
     </g>
    </g>
    <g id="patch_53">
     <path d="M 80.64 171.961033 
L 154.08 171.961033 
L 154.08 154.545448 
L 80.64 154.545448 
z
" style="fill: #ffffff; stroke: #d0d7de; stroke-linejoin: miter"/>
    </g>
    <g id="text_52">
     <!-- -0.041 -->
     <g transform="translate(119.335453 165.598709)scale(0.085 -0.085)">
      <use xlink:href="#DejaVuSans-2d"/>
      <use xlink:href="#DejaVuSans-30" x="36.083984"/>
      <use xlink:href="#DejaVuSans-2e" x="99.707031"/>
      <use xlink:href="#DejaVuSans-30" x="131.494141"/>
      <use xlink:href="#DejaVuSans-34" x="195.117188"/>
      <use xlink:href="#DejaVuSans-31" x="258.740234"/>
     </g>
    </g>
    <g id="patch_54">
     <path d="M 154.08 171.961033 
L 227.52 171.961033 
L 227.52 154.545448 
L 154.08 154.545448 
z
" style="fill: #ffffff; stroke: #d0d7de; stroke-linejoin: miter"/>
    </g>
    <g id="text_53">
     <!-- 0.879 -->
     <g transform="translate(195.842094 165.598709)scale(0.085 -0.085)">
      <use xlink:href="#DejaVuSans-30"/>
      <use xlink:href="#DejaVuSans-2e" x="63.623047"/>
      <use xlink:href="#DejaVuSans-38" x="95.410156"/>
      <use xlink:href="#DejaVuSans-37" x="159.033203"/>
      <use xlink:href="#DejaVuSans-39" x="222.65625"/>
     </g>
    </g>
    <g id="patch_55">
     <path d="M 227.52 171.961033 
L 300.96 171.961033 
L 300.96 154.545448 
L 227.52 154.545448 
z
" style="fill: #ffffff; stroke: #d0d7de; stroke-linejoin: miter"/>
    </g>
    <g id="text_54">
     <!-- -2.307 -->
     <g transform="translate(266.215453 165.598709)scale(0.085 -0.085)">
      <use xlink:href="#DejaVuSans-2d"/>
      <use xlink:href="#DejaVuSans-32" x="36.083984"/>
      <use xlink:href="#DejaVuSans-2e" x="99.707031"/>
      <use xlink:href="#DejaVuSans-33" x="131.494141"/>
      <use xlink:href="#DejaVuSans-30" x="195.117188"/>
      <use xlink:href="#DejaVuSans-37" x="258.740234"/>
     </g>
    </g>
    <g id="patch_56">
     <path d="M 300.96 171.961033 
L 374.4 171.961033 
L 374.4 154.545448 
L 300.96 154.545448 
z
" style="fill: #ffffff; stroke: #d0d7de; stroke-linejoin: miter"/>
    </g>
    <g id="text_55">
     <!-- -1.393 -->
     <g transform="translate(339.655453 165.598709)scale(0.085 -0.085)">
      <use xlink:href="#DejaVuSans-2d"/>
      <use xlink:href="#DejaVuSans-31" x="36.083984"/>
      <use xlink:href="#DejaVuSans-2e" x="99.707031"/>
      <use xlink:href="#DejaVuSans-33" x="131.494141"/>
      <use xlink:href="#DejaVuSans-39" x="195.117188"/>
      <use xlink:href="#DejaVuSans-33" x="258.740234"/>
     </g>
    </g>
    <g id="patch_57">
     <path d="M 374.4 171.961033 
L 447.84 171.961033 
L 447.84 154.545448 
L 374.4 154.545448 
z
" style="fill: #ffffff; stroke: #d0d7de; stroke-linejoin: miter"/>
    </g>
    <g id="text_56">
     <!-- -0.050 -->
     <g transform="translate(413.095453 165.598709)scale(0.085 -0.085)">
      <use xlink:href="#DejaVuSans-2d"/>
      <use xlink:href="#DejaVuSans-30" x="36.083984"/>
      <use xlink:href="#DejaVuSans-2e" x="99.707031"/>
      <use xlink:href="#DejaVuSans-30" x="131.494141"/>
      <use xlink:href="#DejaVuSans-35" x="195.117188"/>
      <use xlink:href="#DejaVuSans-30" x="258.740234"/>
     </g>
    </g>
    <g id="patch_58">
     <path d="M 447.84 171.961033 
L 521.28 171.961033 
L 521.28 154.545448 
L 447.84 154.545448 
z
" style="fill: #ffffff; stroke: #d0d7de; stroke-linejoin: miter"/>
    </g>
    <g id="text_57">
     <!-- 1.331 -->
     <g transform="translate(489.602094 165.598709)scale(0.085 -0.085)">
      <use xlink:href="#DejaVuSans-31"/>
      <use xlink:href="#DejaVuSans-2e" x="63.623047"/>
      <use xlink:href="#DejaVuSans-33" x="95.410156"/>
      <use xlink:href="#DejaVuSans-33" x="159.033203"/>
      <use xlink:href="#DejaVuSans-31" x="222.65625"/>
     </g>
    </g>
    <g id="patch_59">
     <path d="M 521.28 171.961033 
L 594.72 171.961033 
L 594.72 154.545448 
L 521.28 154.545448 
z
" style="fill: #ffffff; stroke: #d0d7de; stroke-linejoin: miter"/>
    </g>
    <g id="text_58">
     <!-- 2.360 -->
     <g transform="translate(563.042094 165.598709)scale(0.085 -0.085)">
      <use xlink:href="#DejaVuSans-32"/>
      <use xlink:href="#DejaVuSans-2e" x="63.623047"/>
      <use xlink:href="#DejaVuSans-33" x="95.410156"/>
      <use xlink:href="#DejaVuSans-36" x="159.033203"/>
      <use xlink:href="#DejaVuSans-30" x="222.65625"/>
     </g>
    </g>
    <g id="patch_60">
     <path d="M 594.72 171.961033 
L 668.16 171.961033 
L 668.16 154.545448 
L 594.72 154.545448 
z
" style="fill: #ffffff; stroke: #d0d7de; stroke-linejoin: miter"/>
    </g>
    <g id="text_59">
     <!-- -7.462 -->
     <g transform="translate(633.415453 165.598709)scale(0.085 -0.085)">
      <use xlink:href="#DejaVuSans-2d"/>
      <use xlink:href="#DejaVuSans-37" x="36.083984"/>
      <use xlink:href="#DejaVuSans-2e" x="99.707031"/>
      <use xlink:href="#DejaVuSans-34" x="131.494141"/>
      <use xlink:href="#DejaVuSans-36" x="195.117188"/>
      <use xlink:href="#DejaVuSans-32" x="258.740234"/>
     </g>
    </g>
    <g id="patch_61">
     <path d="M 668.16 171.961033 
L 741.6 171.961033 
L 741.6 154.545448 
L 668.16 154.545448 
z
" style="fill: #ffffff; stroke: #d0d7de; stroke-linejoin: miter"/>
    </g>
    <g id="text_60">
     <!-- 8.496 -->
     <g transform="translate(709.922094 165.598709)scale(0.085 -0.085)">
      <use xlink:href="#DejaVuSans-38"/>
      <use xlink:href="#DejaVuSans-2e" x="63.623047"/>
      <use xlink:href="#DejaVuSans-34" x="95.410156"/>
      <use xlink:href="#DejaVuSans-39" x="159.033203"/>
      <use xlink:href="#DejaVuSans-36" x="222.65625"/>
     </g>
    </g>
    <g id="patch_62">
     <path d="M 7.2 189.376617 
L 80.64 189.376617 
L 80.64 171.961033 
L 7.2 171.961033 
z
" style="fill: #f9fafb; stroke: #d0d7de; stroke-linejoin: miter"/>
    </g>
    <g id="text_61">
     <!-- x14 -->
     <g style="fill: #111827" transform="translate(55.985219 183.014294)scale(0.085 -0.085)">
      <defs>
       <path id="DejaVuSans-Bold-34" d="M 2356 3675 
L 1038 1722 
L 2356 1722 
L 2356 3675 
z
M 2156 4666 
L 3494 4666 
L 3494 1722 
L 4159 1722 
L 4159 850 
L 3494 850 
L 3494 0 
L 2356 0 
L 2356 850 
L 288 850 
L 288 1881 
L 2156 4666 
z
" transform="scale(0.015625)"/>
      </defs>
      <use xlink:href="#DejaVuSans-Bold-78"/>
      <use xlink:href="#DejaVuSans-Bold-31" x="64.501953"/>
      <use xlink:href="#DejaVuSans-Bold-34" x="134.082031"/>
     </g>
    </g>
    <g id="patch_63">
     <path d="M 80.64 189.376617 
L 154.08 189.376617 
L 154.08 171.961033 
L 80.64 171.961033 
z
" style="fill: #ffffff; stroke: #d0d7de; stroke-linejoin: miter"/>
    </g>
    <g id="text_62">
     <!-- 0.010 -->
     <g transform="translate(122.402094 183.014294)scale(0.085 -0.085)">
      <use xlink:href="#DejaVuSans-30"/>
      <use xlink:href="#DejaVuSans-2e" x="63.623047"/>
      <use xlink:href="#DejaVuSans-30" x="95.410156"/>
      <use xlink:href="#DejaVuSans-31" x="159.033203"/>
      <use xlink:href="#DejaVuSans-30" x="222.65625"/>
     </g>
    </g>
    <g id="patch_64">
     <path d="M 154.08 189.376617 
L 227.52 189.376617 
L 227.52 171.961033 
L 154.08 171.961033 
z
" style="fill: #ffffff; stroke: #d0d7de; stroke-linejoin: miter"/>
    </g>
    <g id="text_63">
     <!-- 1.106 -->
     <g transform="translate(195.842094 183.014294)scale(0.085 -0.085)">
      <use xlink:href="#DejaVuSans-31"/>
      <use xlink:href="#DejaVuSans-2e" x="63.623047"/>
      <use xlink:href="#DejaVuSans-31" x="95.410156"/>
      <use xlink:href="#DejaVuSans-30" x="159.033203"/>
      <use xlink:href="#DejaVuSans-36" x="222.65625"/>
     </g>
    </g>
    <g id="patch_65">
     <path d="M 227.52 189.376617 
L 300.96 189.376617 
L 300.96 171.961033 
L 227.52 171.961033 
z
" style="fill: #ffffff; stroke: #d0d7de; stroke-linejoin: miter"/>
    </g>
    <g id="text_64">
     <!-- -3.233 -->
     <g transform="translate(266.215453 183.014294)scale(0.085 -0.085)">
      <use xlink:href="#DejaVuSans-2d"/>
      <use xlink:href="#DejaVuSans-33" x="36.083984"/>
      <use xlink:href="#DejaVuSans-2e" x="99.707031"/>
      <use xlink:href="#DejaVuSans-32" x="131.494141"/>
      <use xlink:href="#DejaVuSans-33" x="195.117188"/>
      <use xlink:href="#DejaVuSans-33" x="258.740234"/>
     </g>
    </g>
    <g id="patch_66">
     <path d="M 300.96 189.376617 
L 374.4 189.376617 
L 374.4 171.961033 
L 300.96 171.961033 
z
" style="fill: #ffffff; stroke: #d0d7de; stroke-linejoin: miter"/>
    </g>
    <g id="text_65">
     <!-- -1.718 -->
     <g transform="translate(339.655453 183.014294)scale(0.085 -0.085)">
      <use xlink:href="#DejaVuSans-2d"/>
      <use xlink:href="#DejaVuSans-31" x="36.083984"/>
      <use xlink:href="#DejaVuSans-2e" x="99.707031"/>
      <use xlink:href="#DejaVuSans-37" x="131.494141"/>
      <use xlink:href="#DejaVuSans-31" x="195.117188"/>
      <use xlink:href="#DejaVuSans-38" x="258.740234"/>
     </g>
    </g>
    <g id="patch_67">
     <path d="M 374.4 189.376617 
L 447.84 189.376617 
L 447.84 171.961033 
L 374.4 171.961033 
z
" style="fill: #ffffff; stroke: #d0d7de; stroke-linejoin: miter"/>
    </g>
    <g id="text_66">
     <!-- 0.053 -->
     <g transform="translate(416.162094 183.014294)scale(0.085 -0.085)">
      <use xlink:href="#DejaVuSans-30"/>
      <use xlink:href="#DejaVuSans-2e" x="63.623047"/>
      <use xlink:href="#DejaVuSans-30" x="95.410156"/>
      <use xlink:href="#DejaVuSans-35" x="159.033203"/>
      <use xlink:href="#DejaVuSans-33" x="222.65625"/>
     </g>
    </g>
    <g id="patch_68">
     <path d="M 447.84 189.376617 
L 521.28 189.376617 
L 521.28 171.961033 
L 447.84 171.961033 
z
" style="fill: #ffffff; stroke: #d0d7de; stroke-linejoin: miter"/>
    </g>
    <g id="text_67">
     <!-- 1.582 -->
     <g transform="translate(489.602094 183.014294)scale(0.085 -0.085)">
      <use xlink:href="#DejaVuSans-31"/>
      <use xlink:href="#DejaVuSans-2e" x="63.623047"/>
      <use xlink:href="#DejaVuSans-35" x="95.410156"/>
      <use xlink:href="#DejaVuSans-38" x="159.033203"/>
      <use xlink:href="#DejaVuSans-32" x="222.65625"/>
     </g>
    </g>
    <g id="patch_69">
     <path d="M 521.28 189.376617 
L 594.72 189.376617 
L 594.72 171.961033 
L 521.28 171.961033 
z
" style="fill: #ffffff; stroke: #d0d7de; stroke-linejoin: miter"/>
    </g>
    <g id="text_68">
     <!-- 2.947 -->
     <g transform="translate(563.042094 183.014294)scale(0.085 -0.085)">
      <use xlink:href="#DejaVuSans-32"/>
      <use xlink:href="#DejaVuSans-2e" x="63.623047"/>
      <use xlink:href="#DejaVuSans-39" x="95.410156"/>
      <use xlink:href="#DejaVuSans-34" x="159.033203"/>
      <use xlink:href="#DejaVuSans-37" x="222.65625"/>
     </g>
    </g>
    <g id="patch_70">
     <path d="M 594.72 189.376617 
L 668.16 189.376617 
L 668.16 171.961033 
L 594.72 171.961033 
z
" style="fill: #ffffff; stroke: #d0d7de; stroke-linejoin: miter"/>
    </g>
    <g id="text_69">
     <!-- -34.377 -->
     <g transform="translate(628.007328 183.014294)scale(0.085 -0.085)">
      <use xlink:href="#DejaVuSans-2d"/>
      <use xlink:href="#DejaVuSans-33" x="36.083984"/>
      <use xlink:href="#DejaVuSans-34" x="99.707031"/>
      <use xlink:href="#DejaVuSans-2e" x="163.330078"/>
      <use xlink:href="#DejaVuSans-33" x="195.117188"/>
      <use xlink:href="#DejaVuSans-37" x="258.740234"/>
      <use xlink:href="#DejaVuSans-37" x="322.363281"/>
     </g>
    </g>
    <g id="patch_71">
     <path d="M 668.16 189.376617 
L 741.6 189.376617 
L 741.6 171.961033 
L 668.16 171.961033 
z
" style="fill: #ffffff; stroke: #d0d7de; stroke-linejoin: miter"/>
    </g>
    <g id="text_70">
     <!-- 17.205 -->
     <g transform="translate(704.513969 183.014294)scale(0.085 -0.085)">
      <use xlink:href="#DejaVuSans-31"/>
      <use xlink:href="#DejaVuSans-37" x="63.623047"/>
      <use xlink:href="#DejaVuSans-2e" x="127.246094"/>
      <use xlink:href="#DejaVuSans-32" x="159.033203"/>
      <use xlink:href="#DejaVuSans-30" x="222.65625"/>
      <use xlink:href="#DejaVuSans-35" x="286.279297"/>
     </g>
    </g>
    <g id="patch_72">
     <path d="M 7.2 206.792202 
L 80.64 206.792202 
L 80.64 189.376617 
L 7.2 189.376617 
z
" style="fill: #f9fafb; stroke: #d0d7de; stroke-linejoin: miter"/>
    </g>
    <g id="text_71">
     <!-- x16 -->
     <g style="fill: #111827" transform="translate(55.985219 200.429878)scale(0.085 -0.085)">
      <use xlink:href="#DejaVuSans-Bold-78"/>
      <use xlink:href="#DejaVuSans-Bold-31" x="64.501953"/>
      <use xlink:href="#DejaVuSans-Bold-36" x="134.082031"/>
     </g>
    </g>
    <g id="patch_73">
     <path d="M 80.64 206.792202 
L 154.08 206.792202 
L 154.08 189.376617 
L 80.64 189.376617 
z
" style="fill: #ffffff; stroke: #d0d7de; stroke-linejoin: miter"/>
    </g>
    <g id="text_72">
     <!-- 0.028 -->
     <g transform="translate(122.402094 200.429878)scale(0.085 -0.085)">
      <use xlink:href="#DejaVuSans-30"/>
      <use xlink:href="#DejaVuSans-2e" x="63.623047"/>
      <use xlink:href="#DejaVuSans-30" x="95.410156"/>
      <use xlink:href="#DejaVuSans-32" x="159.033203"/>
      <use xlink:href="#DejaVuSans-38" x="222.65625"/>
     </g>
    </g>
    <g id="patch_74">
     <path d="M 154.08 206.792202 
L 227.52 206.792202 
L 227.52 189.376617 
L 154.08 189.376617 
z
" style="fill: #ffffff; stroke: #d0d7de; stroke-linejoin: miter"/>
    </g>
    <g id="text_73">
     <!-- 0.918 -->
     <g transform="translate(195.842094 200.429878)scale(0.085 -0.085)">
      <use xlink:href="#DejaVuSans-30"/>
      <use xlink:href="#DejaVuSans-2e" x="63.623047"/>
      <use xlink:href="#DejaVuSans-39" x="95.410156"/>
      <use xlink:href="#DejaVuSans-31" x="159.033203"/>
      <use xlink:href="#DejaVuSans-38" x="222.65625"/>
     </g>
    </g>
    <g id="patch_75">
     <path d="M 227.52 206.792202 
L 300.96 206.792202 
L 300.96 189.376617 
L 227.52 189.376617 
z
" style="fill: #ffffff; stroke: #d0d7de; stroke-linejoin: miter"/>
    </g>
    <g id="text_74">
     <!-- -2.561 -->
     <g transform="translate(266.215453 200.429878)scale(0.085 -0.085)">
      <use xlink:href="#DejaVuSans-2d"/>
      <use xlink:href="#DejaVuSans-32" x="36.083984"/>
      <use xlink:href="#DejaVuSans-2e" x="99.707031"/>
      <use xlink:href="#DejaVuSans-35" x="131.494141"/>
      <use xlink:href="#DejaVuSans-36" x="195.117188"/>
      <use xlink:href="#DejaVuSans-31" x="258.740234"/>
     </g>
    </g>
    <g id="patch_76">
     <path d="M 300.96 206.792202 
L 374.4 206.792202 
L 374.4 189.376617 
L 300.96 189.376617 
z
" style="fill: #ffffff; stroke: #d0d7de; stroke-linejoin: miter"/>
    </g>
    <g id="text_75">
     <!-- -1.329 -->
     <g transform="translate(339.655453 200.429878)scale(0.085 -0.085)">
      <use xlink:href="#DejaVuSans-2d"/>
      <use xlink:href="#DejaVuSans-31" x="36.083984"/>
      <use xlink:href="#DejaVuSans-2e" x="99.707031"/>
      <use xlink:href="#DejaVuSans-33" x="131.494141"/>
      <use xlink:href="#DejaVuSans-32" x="195.117188"/>
      <use xlink:href="#DejaVuSans-39" x="258.740234"/>
     </g>
    </g>
    <g id="patch_77">
     <path d="M 374.4 206.792202 
L 447.84 206.792202 
L 447.84 189.376617 
L 374.4 189.376617 
z
" style="fill: #ffffff; stroke: #d0d7de; stroke-linejoin: miter"/>
    </g>
    <g id="text_76">
     <!-- 0.008 -->
     <g transform="translate(416.162094 200.429878)scale(0.085 -0.085)">
      <use xlink:href="#DejaVuSans-30"/>
      <use xlink:href="#DejaVuSans-2e" x="63.623047"/>
      <use xlink:href="#DejaVuSans-30" x="95.410156"/>
      <use xlink:href="#DejaVuSans-30" x="159.033203"/>
      <use xlink:href="#DejaVuSans-38" x="222.65625"/>
     </g>
    </g>
    <g id="patch_78">
     <path d="M 447.84 206.792202 
L 521.28 206.792202 
L 521.28 189.376617 
L 447.84 189.376617 
z
" style="fill: #ffffff; stroke: #d0d7de; stroke-linejoin: miter"/>
    </g>
    <g id="text_77">
     <!-- 1.383 -->
     <g transform="translate(489.602094 200.429878)scale(0.085 -0.085)">
      <use xlink:href="#DejaVuSans-31"/>
      <use xlink:href="#DejaVuSans-2e" x="63.623047"/>
      <use xlink:href="#DejaVuSans-33" x="95.410156"/>
      <use xlink:href="#DejaVuSans-38" x="159.033203"/>
      <use xlink:href="#DejaVuSans-33" x="222.65625"/>
     </g>
    </g>
    <g id="patch_79">
     <path d="M 521.28 206.792202 
L 594.72 206.792202 
L 594.72 189.376617 
L 521.28 189.376617 
z
" style="fill: #ffffff; stroke: #d0d7de; stroke-linejoin: miter"/>
    </g>
    <g id="text_78">
     <!-- 2.532 -->
     <g transform="translate(563.042094 200.429878)scale(0.085 -0.085)">
      <use xlink:href="#DejaVuSans-32"/>
      <use xlink:href="#DejaVuSans-2e" x="63.623047"/>
      <use xlink:href="#DejaVuSans-35" x="95.410156"/>
      <use xlink:href="#DejaVuSans-33" x="159.033203"/>
      <use xlink:href="#DejaVuSans-32" x="222.65625"/>
     </g>
    </g>
    <g id="patch_80">
     <path d="M 594.72 206.792202 
L 668.16 206.792202 
L 668.16 189.376617 
L 594.72 189.376617 
z
" style="fill: #ffffff; stroke: #d0d7de; stroke-linejoin: miter"/>
    </g>
    <g id="text_79">
     <!-- -18.451 -->
     <g transform="translate(628.007328 200.429878)scale(0.085 -0.085)">
      <use xlink:href="#DejaVuSans-2d"/>
      <use xlink:href="#DejaVuSans-31" x="36.083984"/>
      <use xlink:href="#DejaVuSans-38" x="99.707031"/>
      <use xlink:href="#DejaVuSans-2e" x="163.330078"/>
      <use xlink:href="#DejaVuSans-34" x="195.117188"/>
      <use xlink:href="#DejaVuSans-35" x="258.740234"/>
      <use xlink:href="#DejaVuSans-31" x="322.363281"/>
     </g>
    </g>
    <g id="patch_81">
     <path d="M 668.16 206.792202 
L 741.6 206.792202 
L 741.6 189.376617 
L 668.16 189.376617 
z
" style="fill: #ffffff; stroke: #d0d7de; stroke-linejoin: miter"/>
    </g>
    <g id="text_80">
     <!-- 23.078 -->
     <g transform="translate(704.513969 200.429878)scale(0.085 -0.085)">
      <use xlink:href="#DejaVuSans-32"/>
      <use xlink:href="#DejaVuSans-33" x="63.623047"/>
      <use xlink:href="#DejaVuSans-2e" x="127.246094"/>
      <use xlink:href="#DejaVuSans-30" x="159.033203"/>
      <use xlink:href="#DejaVuSans-37" x="222.65625"/>
      <use xlink:href="#DejaVuSans-38" x="286.279297"/>
     </g>
    </g>
    <g id="patch_82">
     <path d="M 7.2 224.207786 
L 80.64 224.207786 
L 80.64 206.792202 
L 7.2 206.792202 
z
" style="fill: #f9fafb; stroke: #d0d7de; stroke-linejoin: miter"/>
    </g>
    <g id="text_81">
     <!-- x17 -->
     <g style="fill: #111827" transform="translate(55.985219 217.845463)scale(0.085 -0.085)">
      <defs>
       <path id="DejaVuSans-Bold-37" d="M 428 4666 
L 3944 4666 
L 3944 3988 
L 2125 0 
L 953 0 
L 2675 3781 
L 428 3781 
L 428 4666 
z
" transform="scale(0.015625)"/>
      </defs>
      <use xlink:href="#DejaVuSans-Bold-78"/>
      <use xlink:href="#DejaVuSans-Bold-31" x="64.501953"/>
      <use xlink:href="#DejaVuSans-Bold-37" x="134.082031"/>
     </g>
    </g>
    <g id="patch_83">
     <path d="M 80.64 224.207786 
L 154.08 224.207786 
L 154.08 206.792202 
L 80.64 206.792202 
z
" style="fill: #ffffff; stroke: #d0d7de; stroke-linejoin: miter"/>
    </g>
    <g id="text_82">
     <!-- -0.043 -->
     <g transform="translate(119.335453 217.845463)scale(0.085 -0.085)">
      <use xlink:href="#DejaVuSans-2d"/>
      <use xlink:href="#DejaVuSans-30" x="36.083984"/>
      <use xlink:href="#DejaVuSans-2e" x="99.707031"/>
      <use xlink:href="#DejaVuSans-30" x="131.494141"/>
      <use xlink:href="#DejaVuSans-34" x="195.117188"/>
      <use xlink:href="#DejaVuSans-33" x="258.740234"/>
     </g>
    </g>
    <g id="patch_84">
     <path d="M 154.08 224.207786 
L 227.52 224.207786 
L 227.52 206.792202 
L 154.08 206.792202 
z
" style="fill: #ffffff; stroke: #d0d7de; stroke-linejoin: miter"/>
    </g>
    <g id="text_83">
     <!-- 1.074 -->
     <g transform="translate(195.842094 217.845463)scale(0.085 -0.085)">
      <use xlink:href="#DejaVuSans-31"/>
      <use xlink:href="#DejaVuSans-2e" x="63.623047"/>
      <use xlink:href="#DejaVuSans-30" x="95.410156"/>
      <use xlink:href="#DejaVuSans-37" x="159.033203"/>
      <use xlink:href="#DejaVuSans-34" x="222.65625"/>
     </g>
    </g>
    <g id="patch_85">
     <path d="M 227.52 224.207786 
L 300.96 224.207786 
L 300.96 206.792202 
L 227.52 206.792202 
z
" style="fill: #ffffff; stroke: #d0d7de; stroke-linejoin: miter"/>
    </g>
    <g id="text_84">
     <!-- -2.843 -->
     <g transform="translate(266.215453 217.845463)scale(0.085 -0.085)">
      <use xlink:href="#DejaVuSans-2d"/>
      <use xlink:href="#DejaVuSans-32" x="36.083984"/>
      <use xlink:href="#DejaVuSans-2e" x="99.707031"/>
      <use xlink:href="#DejaVuSans-38" x="131.494141"/>
      <use xlink:href="#DejaVuSans-34" x="195.117188"/>
      <use xlink:href="#DejaVuSans-33" x="258.740234"/>
     </g>
    </g>
    <g id="patch_86">
     <path d="M 300.96 224.207786 
L 374.4 224.207786 
L 374.4 206.792202 
L 300.96 206.792202 
z
" style="fill: #ffffff; stroke: #d0d7de; stroke-linejoin: miter"/>
    </g>
    <g id="text_85">
     <!-- -1.774 -->
     <g transform="translate(339.655453 217.845463)scale(0.085 -0.085)">
      <use xlink:href="#DejaVuSans-2d"/>
      <use xlink:href="#DejaVuSans-31" x="36.083984"/>
      <use xlink:href="#DejaVuSans-2e" x="99.707031"/>
      <use xlink:href="#DejaVuSans-37" x="131.494141"/>
      <use xlink:href="#DejaVuSans-37" x="195.117188"/>
      <use xlink:href="#DejaVuSans-34" x="258.740234"/>
     </g>
    </g>
    <g id="patch_87">
     <path d="M 374.4 224.207786 
L 447.84 224.207786 
L 447.84 206.792202 
L 374.4 206.792202 
z
" style="fill: #ffffff; stroke: #d0d7de; stroke-linejoin: miter"/>
    </g>
    <g id="text_86">
     <!-- 0.003 -->
     <g transform="translate(416.162094 217.845463)scale(0.085 -0.085)">
      <use xlink:href="#DejaVuSans-30"/>
      <use xlink:href="#DejaVuSans-2e" x="63.623047"/>
      <use xlink:href="#DejaVuSans-30" x="95.410156"/>
      <use xlink:href="#DejaVuSans-30" x="159.033203"/>
      <use xlink:href="#DejaVuSans-33" x="222.65625"/>
     </g>
    </g>
    <g id="patch_88">
     <path d="M 447.84 224.207786 
L 521.28 224.207786 
L 521.28 206.792202 
L 447.84 206.792202 
z
" style="fill: #ffffff; stroke: #d0d7de; stroke-linejoin: miter"/>
    </g>
    <g id="text_87">
     <!-- 1.578 -->
     <g transform="translate(489.602094 217.845463)scale(0.085 -0.085)">
      <use xlink:href="#DejaVuSans-31"/>
      <use xlink:href="#DejaVuSans-2e" x="63.623047"/>
      <use xlink:href="#DejaVuSans-35" x="95.410156"/>
      <use xlink:href="#DejaVuSans-37" x="159.033203"/>
      <use xlink:href="#DejaVuSans-38" x="222.65625"/>
     </g>
    </g>
    <g id="patch_89">
     <path d="M 521.28 224.207786 
L 594.72 224.207786 
L 594.72 206.792202 
L 521.28 206.792202 
z
" style="fill: #ffffff; stroke: #d0d7de; stroke-linejoin: miter"/>
    </g>
    <g id="text_88">
     <!-- 2.711 -->
     <g transform="translate(563.042094 217.845463)scale(0.085 -0.085)">
      <use xlink:href="#DejaVuSans-32"/>
      <use xlink:href="#DejaVuSans-2e" x="63.623047"/>
      <use xlink:href="#DejaVuSans-37" x="95.410156"/>
      <use xlink:href="#DejaVuSans-31" x="159.033203"/>
      <use xlink:href="#DejaVuSans-31" x="222.65625"/>
     </g>
    </g>
    <g id="patch_90">
     <path d="M 594.72 224.207786 
L 668.16 224.207786 
L 668.16 206.792202 
L 594.72 206.792202 
z
" style="fill: #ffffff; stroke: #d0d7de; stroke-linejoin: miter"/>
    </g>
    <g id="text_89">
     <!-- -11.912 -->
     <g transform="translate(628.007328 217.845463)scale(0.085 -0.085)">
      <use xlink:href="#DejaVuSans-2d"/>
      <use xlink:href="#DejaVuSans-31" x="36.083984"/>
      <use xlink:href="#DejaVuSans-31" x="99.707031"/>
      <use xlink:href="#DejaVuSans-2e" x="163.330078"/>
      <use xlink:href="#DejaVuSans-39" x="195.117188"/>
      <use xlink:href="#DejaVuSans-31" x="258.740234"/>
      <use xlink:href="#DejaVuSans-32" x="322.363281"/>
     </g>
    </g>
    <g id="patch_91">
     <path d="M 668.16 224.207786 
L 741.6 224.207786 
L 741.6 206.792202 
L 668.16 206.792202 
z
" style="fill: #ffffff; stroke: #d0d7de; stroke-linejoin: miter"/>
    </g>
    <g id="text_90">
     <!-- 13.055 -->
     <g transform="translate(704.513969 217.845463)scale(0.085 -0.085)">
      <use xlink:href="#DejaVuSans-31"/>
      <use xlink:href="#DejaVuSans-33" x="63.623047"/>
      <use xlink:href="#DejaVuSans-2e" x="127.246094"/>
      <use xlink:href="#DejaVuSans-30" x="159.033203"/>
      <use xlink:href="#DejaVuSans-35" x="222.65625"/>
      <use xlink:href="#DejaVuSans-35" x="286.279297"/>
     </g>
    </g>
   </g>
   <g id="text_91">
    <!-- Feature Summary Statistics -->
    <g transform="translate(256.744922 18.597656)scale(0.15 -0.15)">
     <defs>
      <path id="DejaVuSans-Bold-46" d="M 588 4666 
L 3834 4666 
L 3834 3756 
L 1791 3756 
L 1791 2888 
L 3713 2888 
L 3713 1978 
L 1791 1978 
L 1791 0 
L 588 0 
L 588 4666 
z
" transform="scale(0.015625)"/>
      <path id="DejaVuSans-Bold-20" transform="scale(0.015625)"/>
      <path id="DejaVuSans-Bold-53" d="M 3834 4519 
L 3834 3531 
Q 3450 3703 3084 3790 
Q 2719 3878 2394 3878 
Q 1963 3878 1756 3759 
Q 1550 3641 1550 3391 
Q 1550 3203 1689 3098 
Q 1828 2994 2194 2919 
L 2706 2816 
Q 3484 2659 3812 2340 
Q 4141 2022 4141 1434 
Q 4141 663 3683 286 
Q 3225 -91 2284 -91 
Q 1841 -91 1394 -6 
Q 947 78 500 244 
L 500 1259 
Q 947 1022 1364 901 
Q 1781 781 2169 781 
Q 2563 781 2772 912 
Q 2981 1044 2981 1288 
Q 2981 1506 2839 1625 
Q 2697 1744 2272 1838 
L 1806 1941 
Q 1106 2091 782 2419 
Q 459 2747 459 3303 
Q 459 4000 909 4375 
Q 1359 4750 2203 4750 
Q 2588 4750 2994 4692 
Q 3400 4634 3834 4519 
z
" transform="scale(0.015625)"/>
      <path id="DejaVuSans-Bold-79" d="M 78 3500 
L 1197 3500 
L 2138 1125 
L 2938 3500 
L 4056 3500 
L 2584 -331 
Q 2363 -916 2067 -1148 
Q 1772 -1381 1288 -1381 
L 641 -1381 
L 641 -647 
L 991 -647 
Q 1275 -647 1404 -556 
Q 1534 -466 1606 -231 
L 1638 -134 
L 78 3500 
z
" transform="scale(0.015625)"/>
      <path id="DejaVuSans-Bold-63" d="M 3366 3391 
L 3366 2478 
Q 3138 2634 2908 2709 
Q 2678 2784 2431 2784 
Q 1963 2784 1702 2511 
Q 1441 2238 1441 1747 
Q 1441 1256 1702 982 
Q 1963 709 2431 709 
Q 2694 709 2930 787 
Q 3166 866 3366 1019 
L 3366 103 
Q 3103 6 2833 -42 
Q 2563 -91 2291 -91 
Q 1344 -91 809 395 
Q 275 881 275 1747 
Q 275 2613 809 3098 
Q 1344 3584 2291 3584 
Q 2566 3584 2833 3536 
Q 3100 3488 3366 3391 
z
" transform="scale(0.015625)"/>
     </defs>
     <use xlink:href="#DejaVuSans-Bold-46"/>
     <use xlink:href="#DejaVuSans-Bold-65" x="64.310547"/>
     <use xlink:href="#DejaVuSans-Bold-61" x="132.132812"/>
     <use xlink:href="#DejaVuSans-Bold-74" x="199.613281"/>
     <use xlink:href="#DejaVuSans-Bold-75" x="247.416016"/>
     <use xlink:href="#DejaVuSans-Bold-72" x="318.607422"/>
     <use xlink:href="#DejaVuSans-Bold-65" x="367.923828"/>
     <use xlink:href="#DejaVuSans-Bold-20" x="435.746094"/>
     <use xlink:href="#DejaVuSans-Bold-53" x="470.560547"/>
     <use xlink:href="#DejaVuSans-Bold-75" x="542.582031"/>
     <use xlink:href="#DejaVuSans-Bold-6d" x="613.773438"/>
     <use xlink:href="#DejaVuSans-Bold-6d" x="717.972656"/>
     <use xlink:href="#DejaVuSans-Bold-61" x="822.171875"/>
     <use xlink:href="#DejaVuSans-Bold-72" x="889.652344"/>
     <use xlink:href="#DejaVuSans-Bold-79" x="938.96875"/>
     <use xlink:href="#DejaVuSans-Bold-20" x="1004.154297"/>
     <use xlink:href="#DejaVuSans-Bold-53" x="1038.96875"/>
     <use xlink:href="#DejaVuSans-Bold-74" x="1110.990234"/>
     <use xlink:href="#DejaVuSans-Bold-61" x="1158.792969"/>
     <use xlink:href="#DejaVuSans-Bold-74" x="1226.273438"/>
     <use xlink:href="#DejaVuSans-Bold-69" x="1274.076172"/>
     <use xlink:href="#DejaVuSans-Bold-73" x="1308.353516"/>
     <use xlink:href="#DejaVuSans-Bold-74" x="1367.875"/>
     <use xlink:href="#DejaVuSans-Bold-69" x="1415.677734"/>
     <use xlink:href="#DejaVuSans-Bold-63" x="1449.955078"/>
     <use xlink:href="#DejaVuSans-Bold-73" x="1509.232422"/>
    </g>
   </g>
  </g>
 </g>
</svg>
